<?xml version="1.0" standalone="no"?>
<!DOCTYPE svg PUBLIC "-//W3C//DTD SVG 20010904//EN"
 "http://www.w3.org/TR/2001/REC-SVG-20010904/DTD/svg10.dtd">
<svg version="1.0" xmlns="http://www.w3.org/2000/svg"
 width="2480.000000pt" height="2480.000000pt" viewBox="0 0 2480.000000 2480.000000"
 preserveAspectRatio="xMidYMid meet">
<metadata>
Created by potrace 1.14, written by Peter Selinger 2001-2017
</metadata>
<g transform="translate(0.000000,2480.000000) scale(0.100000,-0.100000)"
fill="#000000" stroke="none">
<path d="M2721 12400 l0 -9090 217 0 c144 0 212 4 202 10 -9 6 -10 10 -3 10 6
0 15 -5 18 -10 3 -5 11 -10 16 -10 6 0 8 4 4 9 -3 5 -1 13 5 16 6 4 9 1 8 -7
-2 -9 12 -13 50 -14 28 -1 52 2 52 8 0 5 -4 7 -9 3 -5 -3 -12 -1 -15 4 -4 5 2
8 11 7 10 -2 22 2 26 8 5 6 6 0 2 -14 -6 -24 -5 -24 9 -6 13 16 16 16 16 5 0
-9 7 -16 15 -16 11 0 12 4 4 13 -8 9 -5 11 10 7 12 -3 19 -9 16 -13 -7 -11 22
-6 32 5 4 4 2 5 -4 1 -8 -4 -13 -2 -13 6 0 9 16 13 54 13 35 1 53 -3 49 -10
-3 -5 0 -5 7 2 9 8 19 9 32 2 13 -7 18 -6 18 2 0 7 10 9 24 7 16 -3 27 0 30 9
5 11 9 11 25 1 16 -9 23 -9 37 3 16 13 17 12 11 -5 -6 -15 -5 -17 6 -8 8 7 18
8 23 4 4 -4 3 0 -3 8 -10 13 -6 15 26 14 21 0 43 -4 49 -8 8 -4 12 0 12 11 0
10 4 14 8 8 11 -15 42 -18 42 -4 0 7 6 5 13 -6 11 -14 16 -15 22 -5 5 9 4 11
-3 6 -7 -4 -12 -5 -12 -2 0 3 9 10 20 16 17 9 19 8 13 -7 -5 -15 -3 -16 8 -6
16 16 33 17 23 1 -4 -7 -3 -8 4 -4 7 4 12 15 13 24 0 14 2 13 9 -3 l9 -20 0
20 c1 16 3 17 10 5 6 -8 7 -19 5 -25 -3 -5 6 3 20 20 22 25 26 27 32 12 8 -22
24 -22 24 -1 0 14 3 14 15 4 12 -10 15 -10 15 1 0 12 2 12 9 0 7 -11 10 -10
14 5 4 17 5 17 6 1 1 -15 5 -16 21 -7 12 6 18 16 14 23 -4 7 -3 8 2 4 5 -5 9
-13 9 -18 0 -5 5 -9 10 -8 6 0 9 8 7 17 -2 14 0 14 13 -2 13 -17 15 -17 15 -4
0 22 16 32 26 17 4 -7 3 -9 -3 -6 -5 3 -10 -1 -10 -10 0 -12 5 -11 19 7 11 13
18 17 18 9 0 -11 2 -11 10 1 9 13 10 13 10 0 0 -12 2 -13 9 -1 7 11 9 11 14 0
4 -9 6 -10 6 -2 1 7 8 10 16 7 8 -4 23 2 33 13 9 10 13 13 8 6 -5 -8 -4 -13 2
-13 6 0 13 4 17 10 3 5 13 6 22 3 12 -5 14 -3 8 8 -7 12 -6 12 7 1 13 -10 17
-10 21 0 4 10 6 9 6 -1 1 -11 5 -10 17 5 8 10 13 13 9 6 -8 -16 7 -16 24 0 8
7 11 8 8 3 -3 -6 3 -12 14 -12 10 -1 19 3 19 8 0 6 -5 7 -10 4 -6 -3 -10 -1
-10 5 0 7 7 9 15 6 37 -15 50 -18 37 -8 -11 7 -9 10 7 15 14 3 19 1 14 -6 -4
-7 1 -6 10 2 9 7 17 10 17 6 0 -4 12 1 27 10 23 16 25 16 20 1 -4 -9 -2 -16 3
-16 9 0 14 14 11 33 -2 16 10 6 19 -16 7 -18 9 -19 9 -3 1 12 6 16 17 12 8 -3
12 -2 9 4 -9 14 8 12 24 -3 10 -8 12 -8 7 0 -3 6 -2 14 4 18 5 3 10 1 10 -6 0
-8 4 -9 13 0 10 8 17 7 26 -2 10 -9 11 -8 5 6 -5 13 -2 16 12 10 11 -4 15 -3
10 5 -3 6 -2 13 3 16 5 4 13 1 17 -5 5 -8 3 -9 -6 -4 -9 6 -11 4 -6 -4 6 -9
12 -8 26 4 17 15 19 15 30 -2 11 -17 11 -17 6 1 -6 17 -5 17 11 5 9 -8 14 -9
10 -3 -4 7 0 17 8 24 13 11 14 10 9 -5 -6 -15 -4 -16 14 -6 11 6 23 16 25 23
4 10 6 10 6 0 1 -7 6 -10 11 -7 6 3 10 0 11 -7 0 -7 4 -3 10 10 6 15 13 21 21
15 19 -11 39 -13 32 -2 -5 9 -4 10 32 14 12 1 26 5 32 9 6 3 13 2 17 -4 4 -6
11 -8 16 -4 5 3 6 10 3 16 -4 6 1 8 16 3 14 -4 20 -3 16 3 -3 5 1 13 10 16 12
5 15 2 10 -11 -6 -17 -5 -17 7 -1 11 14 16 15 27 5 10 -9 11 -9 6 1 -5 7 -1
12 9 12 9 0 14 4 11 8 -3 5 14 9 37 11 23 1 44 6 45 12 2 5 8 9 13 9 6 0 7 -5
3 -12 -5 -7 -3 -8 5 -4 7 5 10 15 6 25 -5 13 -4 14 6 3 15 -14 33 -16 25 -3
-7 11 13 9 31 -2 9 -6 11 -3 6 9 -5 14 -3 15 15 5 19 -10 20 -9 17 11 -4 22
-3 22 10 4 15 -20 35 -14 35 11 0 13 3 13 15 3 11 -9 15 -9 15 -1 0 7 8 11 18
9 9 -2 16 2 15 9 -3 12 14 12 37 -1 8 -5 12 -6 8 -1 -8 8 20 34 37 35 6 0 4
-4 -3 -9 -11 -7 -11 -9 2 -14 9 -4 15 -1 13 6 -1 7 3 11 10 10 8 -2 10 4 6 15
-5 13 -3 15 7 5 9 -8 19 -9 32 -2 10 5 24 7 31 3 7 -5 6 0 -3 12 -8 10 -10 16
-6 12 5 -4 15 -3 23 4 11 9 12 7 7 -8 -5 -17 -4 -17 8 -4 7 9 23 15 36 14 18
-1 21 3 17 20 -5 17 -4 18 4 6 10 -13 12 -13 21 0 8 13 10 13 10 1 0 -11 4
-10 16 5 15 19 16 19 10 -1 -5 -18 -5 -18 6 -4 7 9 18 14 25 12 6 -2 15 1 19
8 4 7 3 9 -4 5 -6 -3 -13 -2 -16 3 -4 5 7 7 23 5 22 -4 33 1 46 18 l17 23 -7
-25 -8 -25 22 25 c13 14 19 18 15 10 -4 -9 3 -6 17 6 13 12 34 20 46 19 16 -1
20 2 13 10 -6 7 -3 11 10 11 10 0 16 -4 13 -9 -3 -5 4 -3 15 4 12 7 18 17 16
21 -8 12 19 5 28 -7 5 -6 8 -3 8 7 0 12 5 15 17 11 10 -4 14 -2 10 4 -10 16
38 34 52 20 10 -9 12 -9 9 2 -2 7 3 16 10 18 8 3 10 -1 6 -14 -6 -16 -5 -16 9
2 8 11 13 24 10 30 -3 5 0 4 8 -3 18 -17 30 -15 23 3 -5 11 -2 13 10 9 9 -3
16 -1 16 5 0 6 7 8 17 4 11 -5 14 -3 8 6 -6 11 -3 11 16 0 23 -12 23 -11 9 6
-14 17 -14 18 7 6 20 -10 22 -9 16 5 -4 12 -3 15 5 10 7 -4 12 -3 12 2 0 5 11
8 25 6 22 -2 25 1 20 19 -4 12 -3 18 2 12 10 -13 36 -19 29 -6 -6 8 23 22 54
25 8 1 14 8 12 16 -3 11 0 11 12 0 12 -9 16 -9 16 -1 0 7 4 10 9 7 4 -3 17 1
27 10 18 14 18 15 -3 5 -12 -6 -24 -7 -27 -3 -5 9 11 12 53 12 18 0 22 4 17
17 -4 10 -4 14 0 10 4 -4 14 -1 22 6 11 8 14 8 9 0 -7 -12 6 -11 36 2 10 4 16
14 13 21 -3 8 0 11 10 7 8 -3 21 0 29 7 8 7 15 9 15 4 0 -5 10 2 21 16 11 14
18 20 15 14 -3 -6 1 -11 9 -11 7 0 12 8 10 18 -2 12 1 16 10 13 7 -3 16 -1 20
5 3 6 15 11 26 11 11 0 17 4 14 10 -4 6 1 7 11 3 13 -5 15 -3 9 8 -6 11 -5 12
6 2 11 -11 15 -8 26 15 7 15 11 18 8 7 -5 -19 -4 -19 9 -2 10 14 15 15 19 5 4
-11 6 -11 6 0 1 7 5 10 11 7 6 -4 7 1 3 11 -5 14 -3 16 11 11 10 -4 19 -1 22
8 5 12 10 12 27 3 19 -10 20 -9 9 4 -9 11 -10 18 -2 23 5 3 10 1 10 -5 0 -6 5
-8 10 -5 6 4 8 10 6 14 -3 4 5 8 16 8 11 1 27 10 35 20 8 10 11 11 7 3 -7 -12
-4 -12 16 2 14 9 24 22 22 29 -2 9 1 9 13 -1 13 -11 15 -10 10 3 -4 8 -1 18 6
23 7 4 10 3 5 -4 -3 -6 -2 -13 3 -16 5 -3 11 4 15 17 5 18 8 20 16 7 9 -14 15
-7 11 14 -1 5 5 6 14 3 9 -4 15 -1 15 8 0 8 11 17 25 21 14 3 25 10 25 15 0 5
6 9 14 9 8 0 17 6 19 13 4 8 6 8 6 -3 1 -10 6 -7 17 8 8 12 20 20 25 17 5 -4
9 1 9 9 0 9 5 16 11 16 5 0 7 -4 4 -10 -3 -5 0 -7 9 -4 8 3 13 14 11 25 -3 16
-1 17 16 9 13 -8 19 -7 19 0 0 6 6 8 13 4 8 -5 7 -2 -2 9 -12 15 -12 17 4 11
14 -6 16 -4 10 7 -7 11 -5 11 10 -1 11 -9 16 -10 11 -2 -7 11 5 17 28 13 5 -1
4 5 -3 13 -11 13 -9 14 14 10 19 -3 24 -1 19 7 -5 9 -2 10 9 6 11 -4 15 -1 12
13 -2 13 1 17 10 13 17 -6 47 21 37 33 -4 5 0 3 9 -4 13 -10 19 -9 30 5 13 17
13 17 -6 4 -19 -14 -19 -14 -4 3 9 9 25 18 37 19 17 1 19 4 9 16 -10 12 -9 13
10 2 20 -10 22 -9 16 6 -5 12 -2 15 10 10 9 -3 19 -2 22 3 3 4 -1 11 -7 13 -7
3 0 6 15 6 16 1 26 5 22 11 -3 5 1 10 10 10 10 0 13 5 9 12 -5 8 -2 9 9 5 12
-4 22 2 33 19 10 14 23 23 30 20 8 -3 14 1 14 9 0 7 5 17 12 21 6 4 8 3 5 -3
-3 -5 0 -10 8 -10 7 0 12 8 10 18 -3 12 1 16 11 12 9 -3 14 0 12 7 -2 7 3 15
10 17 8 3 10 -1 6 -14 -4 -11 1 -8 12 8 11 15 25 24 34 21 13 -5 13 -3 0 13
-8 10 -10 16 -3 12 14 -9 45 2 38 14 -8 11 27 27 45 21 13 -5 13 -3 1 12 -12
14 -12 16 4 10 13 -5 16 -4 11 4 -6 11 11 17 36 13 4 0 5 6 1 15 -4 11 0 15
13 12 13 -2 19 3 18 14 -1 10 1 17 5 16 26 -3 42 4 38 16 -4 10 0 14 13 11 11
-2 23 1 26 7 4 7 2 8 -4 4 -7 -4 -12 -3 -12 2 0 6 7 13 16 16 22 9 26 8 18 -6
-4 -7 -3 -8 5 -4 6 4 9 12 6 17 -4 5 -1 9 5 9 6 0 8 4 5 10 -3 5 1 10 9 10 9
0 16 4 16 10 0 5 13 16 30 25 21 11 28 20 23 33 -5 14 -3 13 11 -3 10 -11 15
-15 12 -9 -3 7 1 14 9 18 8 3 15 13 15 23 0 15 2 16 10 3 8 -13 10 -12 10 4 0
12 5 16 15 12 8 -3 14 0 12 6 -1 7 5 13 13 13 8 0 14 6 13 12 -1 6 8 19 20 29
21 19 21 19 7 -1 -14 -19 -14 -19 3 -6 9 7 17 20 17 28 0 10 6 13 16 9 8 -3
13 -2 10 3 -3 5 12 20 34 35 22 14 40 33 40 41 0 8 6 12 14 9 8 -3 17 0 22 7
5 8 3 10 -7 4 -11 -7 -12 -6 -2 7 7 8 9 18 5 23 -4 4 3 3 15 -4 24 -12 32 -6
27 22 -1 11 0 16 3 13 3 -3 12 2 20 12 8 9 12 11 8 5 -3 -7 -2 -13 3 -13 5 0
12 9 15 21 3 12 10 18 16 14 6 -3 11 1 11 10 0 10 5 13 12 9 8 -5 9 -2 5 9 -5
13 -1 17 15 17 12 0 19 3 15 6 -8 8 16 33 26 27 6 -4 11 11 9 29 -1 3 5 9 14
12 10 4 13 2 8 -6 -5 -7 -3 -8 5 -4 7 5 10 14 7 22 -3 8 0 11 8 8 8 -3 17 0
22 7 5 8 3 10 -7 5 -8 -4 -5 -1 5 8 10 8 23 13 29 9 6 -3 7 -1 3 5 -3 6 3 14
15 17 17 6 19 9 8 16 -10 6 -7 9 11 10 14 0 19 3 12 6 -19 7 5 33 32 33 16 0
18 2 7 9 -11 7 -9 11 8 20 12 7 19 16 16 21 -4 6 1 7 11 3 12 -4 15 -3 10 5
-4 7 -2 12 4 12 6 0 15 11 21 24 7 14 17 22 24 19 8 -3 15 5 17 19 2 13 9 24
16 24 6 1 17 2 22 3 6 0 10 7 10 15 0 8 7 17 16 20 8 3 12 10 9 16 -3 6 2 13
12 17 21 8 44 29 44 40 0 4 8 7 17 5 10 -2 13 1 7 5 -5 4 -11 15 -13 23 -2 8
-1 12 3 8 8 -7 51 33 48 44 -2 4 5 4 14 1 11 -4 14 -3 9 5 -4 7 -2 12 4 12 6
0 9 4 6 9 -3 5 4 11 15 14 15 4 20 11 15 22 -3 9 -2 14 3 11 5 -3 17 6 26 20
12 19 19 23 25 14 5 -9 9 -9 14 -1 4 6 3 11 -2 11 -6 0 -12 7 -15 14 -4 9 -1
13 6 10 7 -2 20 10 30 27 12 22 22 29 34 25 13 -5 14 -4 3 9 -11 13 -10 14 6
9 10 -4 16 -4 12 1 -4 4 4 16 17 27 14 11 25 26 25 34 0 9 5 12 12 8 8 -5 9
-2 5 9 -4 11 -1 17 8 17 8 0 12 8 10 20 -3 17 -1 19 16 9 19 -10 19 -9 10 10
-9 16 -9 19 2 15 9 -3 17 3 20 16 3 12 10 19 15 16 5 -3 8 6 6 20 -2 19 1 23
10 14 19 -15 40 11 23 30 -9 10 -9 11 0 6 8 -4 18 6 28 30 10 24 20 34 29 31
8 -3 17 1 20 9 4 10 1 13 -7 9 -6 -4 -4 0 5 8 10 8 15 17 11 20 -3 4 1 7 10 7
8 0 19 9 22 21 4 11 12 18 19 16 7 -3 13 1 13 9 0 7 -3 11 -7 9 -3 -2 -7 6 -7
18 -1 12 1 17 5 12 9 -13 35 -18 27 -5 -3 5 0 10 7 10 9 0 9 3 -2 10 -13 8
-12 10 3 10 11 0 15 4 11 12 -5 8 -2 9 9 5 9 -3 16 -3 16 1 -1 4 0 10 1 15 4
12 7 26 9 37 0 6 8 10 16 10 9 0 12 6 9 15 -4 9 0 15 9 15 9 0 19 5 23 12 4 7
3 8 -4 4 -8 -5 -10 -2 -6 8 7 17 20 21 27 9 2 -5 2 -2 0 6 -2 7 5 20 14 28 10
8 13 12 7 9 -6 -3 -11 2 -11 10 0 8 6 13 14 10 7 -3 13 -1 13 5 0 6 6 7 13 3
6 -4 9 -4 5 1 -4 4 -2 15 5 24 10 14 10 14 -5 3 -12 -10 -18 -10 -24 -1 -4 7
-3 9 3 6 13 -8 35 17 25 29 -4 4 2 2 12 -6 18 -14 19 -14 6 10 -13 24 -12 24
5 10 11 -9 16 -10 11 -3 -4 7 -3 13 3 13 5 0 8 8 6 19 -2 12 2 18 13 17 12 -1
17 6 16 21 -1 13 2 21 5 18 4 -2 13 0 21 6 10 6 11 9 3 9 -7 0 -13 5 -13 11 0
5 5 7 10 4 9 -6 15 8 11 29 -1 5 4 4 12 -3 12 -10 14 -6 12 19 -2 23 1 30 11
26 7 -3 16 -1 19 4 3 4 -1 11 -7 13 -10 4 -10 6 0 6 8 1 10 6 6 14 -5 7 -2 7
10 -2 9 -8 16 -10 15 -5 -4 23 2 45 11 39 6 -4 10 -3 9 2 -5 27 2 45 16 39 8
-3 14 -2 14 2 -1 4 -1 17 0 29 1 17 5 21 19 16 15 -6 16 -5 2 12 -12 15 -12
17 -1 10 11 -6 13 -3 9 13 -4 15 -2 20 11 17 10 -2 18 3 18 10 0 8 -5 11 -10
8 -6 -4 -7 -1 -3 6 5 7 15 10 23 6 13 -4 14 -3 3 10 -12 14 -7 20 14 16 5 -1
3 6 -5 15 -9 12 -9 15 -1 10 7 -4 12 -2 12 4 0 6 5 8 12 4 8 -5 9 -2 5 10 -4
10 -1 19 8 22 7 3 11 12 8 20 -3 7 3 17 12 20 13 5 14 9 3 15 -10 7 -8 9 6 9
15 0 16 3 6 15 -11 13 -10 14 4 9 12 -4 16 -1 16 14 0 12 5 24 12 28 7 5 8 3
3 -6 -5 -9 -4 -11 4 -6 6 4 9 18 7 32 -3 13 -1 22 3 19 5 -2 15 3 22 12 8 9 9
14 3 10 -6 -3 -11 1 -11 9 0 8 6 13 13 10 8 -3 16 -1 19 4 4 6 1 10 -5 10 -6
0 -8 5 -5 10 4 6 11 7 17 4 6 -4 6 2 -1 15 -10 17 -9 20 4 15 11 -5 14 -2 8
12 -5 13 -3 15 7 9 10 -6 12 -4 7 9 -4 10 -1 19 9 23 8 3 13 12 10 20 -4 9 -2
11 6 7 7 -5 9 1 6 19 -3 14 -2 26 1 25 19 -2 44 4 34 9 -9 3 -9 11 3 29 9 13
14 31 10 39 -3 9 -2 13 4 10 9 -6 15 9 11 29 -1 5 5 4 13 -3 12 -10 14 -9 9 7
-2 11 0 23 7 27 8 5 8 10 0 20 -8 10 -8 15 1 21 8 4 9 3 5 -4 -4 -7 -2 -12 3
-12 6 0 11 7 11 16 0 8 4 13 8 10 5 -3 9 1 9 9 0 8 -3 12 -7 10 -4 -2 -7 2 -7
9 0 8 7 12 15 8 9 -3 13 -1 9 5 -4 6 0 14 9 17 13 5 14 9 4 21 -10 12 -9 15 4
15 8 0 18 11 22 25 3 14 11 25 18 25 6 0 4 5 -4 10 -13 8 -12 12 7 29 11 11
23 19 25 18 2 -1 -3 4 -11 10 -11 10 -12 13 -2 13 8 0 11 6 7 16 -6 15 -4 15
10 3 16 -13 16 -12 6 8 -9 16 -9 24 0 29 7 5 8 3 3 -6 -6 -9 -4 -11 4 -5 7 4
10 16 8 27 -3 11 0 21 8 24 8 3 11 13 8 22 -5 11 -2 14 9 10 8 -4 15 -1 15 8
0 7 -4 11 -9 8 -4 -3 -5 2 -2 10 3 9 10 16 16 16 5 0 7 4 4 9 -3 5 1 12 10 15
14 5 14 9 3 23 -12 15 -12 16 4 10 15 -6 16 -4 6 14 -9 17 -8 20 2 14 9 -6 10
-3 5 10 -5 15 -4 16 8 6 13 -11 15 -9 11 7 -2 12 3 26 11 33 10 8 11 15 4 25
-8 9 -6 15 7 23 10 6 14 11 9 11 -5 0 -2 8 5 17 8 9 9 14 3 10 -6 -3 -11 0
-11 8 0 10 5 11 19 4 16 -9 17 -7 8 16 -6 15 -6 24 -1 21 5 -3 12 1 15 10 3 8
2 13 -3 9 -17 -10 -5 28 13 40 10 7 17 16 17 19 -3 27 0 36 12 30 7 -5 6 0 -3
11 -9 12 -10 16 -2 11 9 -6 11 -1 8 18 -3 14 -2 25 2 23 4 -1 8 1 9 6 2 4 10
21 18 37 9 17 14 38 13 48 -2 10 2 16 11 14 12 -3 12 -1 0 14 -12 16 -12 17 2
12 12 -5 14 0 11 24 -3 20 -1 29 6 24 12 -7 11 12 -2 33 -6 10 -5 12 2 7 18
-11 35 3 22 19 -8 9 -7 17 4 28 10 9 11 18 5 24 -6 6 -4 15 8 24 16 13 17 12
4 -3 -7 -10 -9 -18 -3 -18 14 0 23 28 12 35 -6 4 -10 11 -10 17 0 7 4 7 13 -1
11 -8 13 -6 12 12 -1 12 5 27 14 34 14 10 12 11 -9 7 l-25 -5 24 14 c23 14 23
15 5 26 -19 11 -19 11 0 9 10 -2 21 3 24 11 3 8 0 11 -7 7 -7 -5 -9 -1 -5 8 3
9 11 13 18 9 6 -4 4 2 -4 12 -8 10 -10 16 -3 12 15 -9 23 14 11 36 -6 12 -5
16 3 15 6 -2 14 3 17 11 3 8 0 11 -7 7 -7 -5 -9 -1 -5 8 3 9 11 13 18 9 6 -3
8 -3 4 2 -4 4 -3 14 3 21 7 8 6 14 -2 20 -8 5 -9 3 -4 -6 5 -9 4 -11 -3 -6 -9
5 -8 12 1 26 6 11 15 20 18 20 4 0 5 14 4 30 -2 22 1 28 9 21 8 -6 11 -2 11
14 0 15 -5 21 -15 18 -8 -2 -4 2 9 10 18 11 20 16 10 20 -10 4 -10 6 -1 6 6 1
12 8 12 17 0 9 -5 13 -12 9 -7 -4 -5 0 4 8 14 11 15 16 5 27 -9 10 -9 11 1 6
9 -6 11 -1 8 19 -4 23 -2 25 17 19 20 -6 20 -6 4 10 -21 22 -22 27 0 19 10 -4
14 -2 9 5 -3 6 -2 13 4 17 7 4 7 12 0 26 -7 12 -7 19 -1 19 6 0 7 7 4 17 -4
11 -3 14 5 9 8 -5 10 -1 5 10 -5 12 -3 15 6 9 10 -6 11 -3 2 14 -7 13 -8 21
-2 21 6 0 7 7 4 17 -4 10 -2 14 4 10 5 -3 10 0 10 8 0 8 -5 11 -11 8 -6 -3 -5
0 2 8 15 16 16 33 0 23 -7 -4 -8 -3 -4 4 4 7 15 12 24 13 11 0 13 2 4 6 -10 4
-9 10 5 26 12 15 13 18 2 10 -13 -11 -15 -9 -14 9 1 12 7 24 13 26 7 2 9 9 5
15 -10 16 -11 47 -2 42 4 -3 12 2 18 9 14 17 -2 32 -21 20 -7 -4 -8 -3 -4 4 4
7 13 12 21 12 20 0 26 28 8 38 -13 8 -13 10 2 16 14 5 15 9 6 20 -9 11 -9 16
0 22 8 5 10 3 4 -7 -5 -8 -4 -10 0 -6 12 10 15 38 4 31 -5 -3 -8 6 -7 19 2 18
7 23 18 19 13 -5 13 -3 2 10 -10 13 -10 18 -1 24 8 5 9 3 4 -6 -5 -9 -4 -11 4
-6 9 6 9 11 0 22 -9 11 -8 14 2 14 11 0 11 2 -1 10 -9 6 -10 10 -3 10 8 0 9 9
3 29 -6 23 -5 29 5 25 9 -4 12 6 11 35 -1 27 3 42 12 46 10 4 11 9 4 18 -11
14 -11 67 1 67 4 0 7 7 7 16 0 8 -4 13 -8 10 -5 -3 -9 1 -9 9 0 8 4 12 10 8 5
-3 8 8 6 23 -1 16 3 42 10 58 6 15 10 47 8 71 -2 29 1 41 8 39 7 -3 12 2 12
10 0 8 -3 13 -7 11 -4 -2 -7 2 -7 10 0 8 4 12 9 9 4 -3 8 0 8 5 0 6 -5 11 -12
11 -7 0 -5 5 5 13 17 12 18 32 3 56 -7 11 -5 13 9 7 15 -5 16 -4 5 9 -7 8 -9
15 -4 15 5 0 1 7 -9 14 -16 12 -16 14 -2 20 9 3 13 2 10 -4 -3 -6 1 -7 10 -4
14 6 14 8 -2 21 -10 8 -11 11 -3 7 13 -7 13 -5 1 9 -7 9 -9 17 -4 17 5 0 9 18
10 40 0 22 -3 37 -8 34 -5 -3 -6 2 -3 10 3 9 11 13 16 10 6 -4 5 4 -2 16 -9
16 -9 20 -1 15 8 -5 10 1 5 21 -6 21 -4 25 7 19 11 -6 12 -5 2 6 -15 16 -17
33 -3 24 6 -4 7 1 3 11 -4 12 -3 15 5 10 8 -5 10 -2 6 8 -3 9 -11 16 -16 16
-6 0 -4 8 3 17 8 10 9 14 2 10 -6 -4 -15 -3 -18 3 -4 6 -1 9 6 8 6 -2 14 3 17
11 3 10 0 11 -9 5 -12 -6 -12 -5 -1 8 15 19 25 61 12 53 -7 -4 -7 16 0 35 1 3
2 12 1 22 -1 9 3 19 9 23 8 5 8 10 0 20 -7 9 -7 21 0 39 6 18 6 25 0 21 -6 -3
-10 -1 -10 4 0 6 6 11 13 11 8 0 7 4 -3 10 -8 5 -10 10 -5 10 6 0 3 5 -5 10
-12 7 -12 10 -1 10 7 0 11 6 8 14 -3 7 0 19 6 25 8 8 8 11 -2 11 -7 0 -9 5 -6
10 3 6 0 10 -7 10 -10 0 -9 3 2 10 8 5 11 12 8 16 -4 4 -3 15 2 25 8 13 6 20
-7 28 -12 7 -13 11 -5 11 8 0 12 6 9 13 -2 6 0 20 5 31 7 13 7 16 -1 12 -15
-10 -14 7 1 22 9 9 9 12 -1 12 -10 0 -11 3 -2 14 7 8 8 17 3 20 -11 7 -9 72 3
83 4 5 5 2 0 -6 -6 -10 -4 -12 4 -7 8 6 9 12 2 20 -6 7 -8 16 -4 19 3 4 2 7
-4 7 -11 0 -11 29 1 48 4 7 2 12 -4 12 -6 0 -8 5 -5 10 4 6 12 8 18 4 7 -3 4
1 -6 9 -12 10 -15 17 -7 22 7 4 7 11 2 18 -11 15 -9 73 2 84 5 4 6 3 3 -3 -3
-6 0 -11 8 -11 13 0 13 3 0 17 -8 9 -12 20 -8 23 3 4 2 7 -4 7 -11 0 -11 29 1
48 4 7 12 9 18 6 7 -4 8 -2 4 4 -4 6 -14 8 -24 5 -15 -6 -15 -5 -3 10 10 13
10 17 1 17 -10 0 -10 3 -1 14 7 8 8 17 3 20 -14 8 -8 71 7 90 12 14 11 16 -4
10 -16 -7 -16 -5 1 22 14 22 15 26 3 17 -13 -10 -16 -10 -16 2 0 8 5 15 11 15
6 0 4 5 -4 10 -8 5 -10 10 -3 10 12 0 12 17 0 37 -4 6 -3 14 3 18 6 4 7 12 3
18 -11 19 -10 50 4 74 12 20 11 22 -4 16 -16 -6 -17 -5 -3 13 8 10 20 22 25
26 7 5 6 8 0 8 -6 0 -16 -5 -22 -11 -17 -17 -11 14 6 35 12 14 11 16 -4 10
-16 -7 -16 -5 1 22 14 22 15 26 3 17 -13 -10 -16 -10 -16 2 0 8 5 15 11 15 6
0 4 5 -4 10 -8 5 -10 10 -3 10 12 0 12 17 0 37 -4 6 -3 14 3 18 6 4 7 12 3 18
-11 19 -10 50 4 74 12 20 11 22 -4 16 -16 -6 -17 -5 -3 13 8 10 20 22 25 26 7
5 6 8 0 8 -6 0 -16 -5 -22 -11 -13 -13 -13 7 0 29 5 6 4 12 -1 12 -10 0 -10
30 1 46 3 6 3 14 -1 18 -10 10 -10 76 0 70 4 -3 7 6 6 20 -1 15 -5 26 -9 26
-8 0 -5 32 5 48 4 7 2 12 -4 12 -6 0 -8 5 -5 10 4 6 12 8 18 4 7 -3 4 1 -6 9
-12 10 -15 17 -7 22 7 4 7 11 2 18 -11 15 -9 73 2 84 5 4 6 3 3 -3 -3 -6 0
-11 8 -11 13 0 13 3 0 17 -8 9 -12 20 -8 23 3 4 2 7 -4 7 -11 0 -11 29 1 48 4
7 12 9 18 6 7 -4 8 -2 4 4 -4 6 -14 8 -24 5 -15 -6 -15 -5 -3 10 10 13 10 17
1 17 -10 0 -10 3 -1 14 7 8 8 17 3 20 -14 8 -8 71 7 90 12 14 11 16 -4 10 -16
-7 -16 -5 1 22 14 22 15 26 3 17 -13 -10 -16 -10 -16 2 0 8 5 15 11 15 6 0 4
5 -4 10 -8 5 -10 10 -3 10 12 0 12 17 0 37 -4 6 -3 14 3 18 6 4 7 12 3 18 -11
19 -10 50 4 74 12 20 11 22 -4 16 -16 -6 -17 -5 -3 13 8 10 20 22 25 26 7 5 6
8 0 8 -6 0 -16 -5 -22 -11 -17 -17 -11 14 6 35 12 14 11 16 -4 10 -16 -7 -16
-5 1 22 14 22 15 26 3 17 -13 -10 -16 -10 -16 2 0 8 5 15 11 15 6 0 4 5 -4 10
-8 5 -10 10 -3 10 12 0 12 17 0 37 -4 6 -3 14 3 18 6 4 7 12 3 18 -11 19 -10
50 4 74 12 20 11 22 -4 16 -16 -6 -17 -5 -3 13 8 10 20 22 25 26 7 5 6 8 0 8
-6 0 -16 -5 -22 -11 -13 -13 -13 7 0 29 5 6 4 12 -1 12 -10 0 -10 30 1 46 3 6
3 14 -1 18 -10 10 -10 76 0 70 4 -3 7 6 6 20 -1 15 -5 26 -9 26 -8 0 -5 32 5
48 4 7 2 12 -4 12 -6 0 -8 5 -5 10 4 6 12 8 18 4 7 -3 4 1 -6 9 -12 10 -15 17
-7 22 7 4 7 11 2 18 -11 15 -9 73 2 84 5 4 6 3 3 -3 -3 -6 0 -11 8 -11 13 0
13 3 0 17 -8 9 -12 20 -8 23 3 4 2 7 -4 7 -11 0 -11 29 1 48 4 7 12 9 18 6 7
-4 8 -2 4 4 -4 6 -14 8 -24 5 -15 -6 -15 -5 -3 10 10 13 10 17 1 17 -10 0 -10
3 -1 14 7 8 8 17 3 20 -14 8 -8 71 7 90 12 14 11 16 -4 10 -16 -7 -16 -5 1 22
14 22 15 26 3 17 -13 -10 -16 -10 -16 2 0 8 5 15 11 15 6 0 4 5 -4 10 -8 5
-10 10 -3 10 12 0 12 17 0 37 -4 6 -3 14 3 18 6 4 7 12 3 18 -11 19 -10 50 4
74 12 20 11 22 -4 16 -16 -6 -17 -5 -3 13 8 10 20 22 25 26 7 5 6 8 -1 8 -5 0
-15 -5 -21 -11 -17 -17 -11 14 6 35 12 14 11 16 -4 10 -16 -7 -16 -5 1 22 14
22 15 26 3 17 -13 -10 -16 -10 -16 2 0 8 5 15 11 15 6 0 4 5 -4 10 -8 5 -10
10 -3 10 12 0 12 17 0 37 -4 6 -3 14 3 18 6 4 7 12 3 18 -11 19 -10 50 4 74
12 20 11 22 -4 16 -16 -6 -17 -5 -3 13 8 10 20 22 25 26 7 5 6 8 -1 8 -5 0
-15 -5 -21 -11 -13 -13 -13 7 0 29 5 6 4 12 -1 12 -10 0 -10 30 1 46 3 6 3 14
-1 18 -10 10 -10 76 0 70 4 -3 7 6 6 20 -1 15 -5 26 -9 26 -8 0 -5 32 5 48 4
7 2 12 -4 12 -6 0 -8 5 -5 10 4 6 12 8 18 4 7 -3 4 1 -6 9 -12 10 -15 17 -7
22 7 4 7 11 2 18 -11 15 -9 73 2 84 5 4 6 3 3 -3 -3 -6 0 -11 8 -11 13 0 13 3
0 17 -8 9 -12 20 -8 23 3 4 2 7 -4 7 -11 0 -11 29 1 48 4 7 12 9 18 6 7 -4 8
-2 4 4 -4 6 -14 8 -24 5 -15 -6 -15 -5 -3 10 10 13 10 17 1 17 -10 0 -10 3 -1
14 7 8 8 17 3 20 -14 8 -8 71 7 90 12 14 11 16 -4 10 -16 -7 -16 -5 1 22 14
22 15 26 3 17 -13 -10 -16 -10 -16 2 0 8 5 15 11 15 6 0 4 5 -4 10 -8 5 -10
10 -3 10 12 0 12 17 0 37 -4 6 -3 14 3 18 6 4 7 12 3 18 -11 19 -10 50 4 74
12 20 11 22 -4 16 -16 -6 -17 -5 -3 13 8 10 20 22 25 26 7 5 6 8 -1 8 -5 0
-15 -5 -20 -10 -7 -7 -11 -6 -11 5 0 8 5 15 11 15 6 0 4 5 -4 10 -13 8 -13 11
-1 22 11 11 13 11 6 -1 -6 -10 -4 -12 5 -6 11 7 10 10 -1 19 -13 10 -22 79 -9
71 3 -1 12 4 20 13 13 14 12 15 -4 9 -14 -5 -17 -3 -13 8 4 8 2 17 -2 19 -11
7 -8 73 4 83 4 5 5 3 2 -3 -3 -6 0 -11 8 -11 13 0 13 3 0 17 -8 9 -12 20 -8
23 3 4 2 7 -3 7 -15 0 -11 44 5 64 12 14 12 16 -1 11 -11 -5 -14 3 -13 39 0
25 5 49 9 53 5 5 6 2 1 -6 -6 -10 -4 -12 4 -7 9 6 9 11 0 22 -6 8 -8 14 -4 14
4 0 3 6 -2 13 -12 15 -11 73 1 84 5 4 6 2 2 -4 -10 -18 -1 -16 14 3 11 12 11
15 -1 12 -8 -2 -13 3 -11 10 1 6 -2 12 -6 12 -4 0 -8 9 -8 19 0 11 4 17 8 15
4 -3 8 -1 8 5 0 5 -6 11 -12 14 -10 3 -10 8 1 18 12 12 13 12 6 0 -6 -10 -4
-12 5 -6 11 7 10 10 -1 19 -13 10 -22 79 -9 71 3 -1 12 4 20 13 13 14 12 15
-4 9 -14 -5 -17 -3 -13 8 4 8 2 17 -2 19 -11 7 -8 73 4 83 4 5 5 3 2 -3 -3 -6
0 -11 8 -11 13 0 13 3 0 17 -8 9 -12 20 -8 23 3 4 2 7 -3 7 -15 0 -11 44 5 64
12 14 12 16 -1 11 -11 -5 -14 3 -13 39 0 25 5 49 9 53 5 5 6 2 1 -6 -6 -10 -4
-12 4 -7 9 6 9 11 0 22 -6 8 -8 14 -4 14 4 0 3 6 -2 13 -12 15 -11 73 1 84 5
4 6 2 2 -4 -10 -18 -1 -16 14 3 11 12 11 15 -1 12 -8 -2 -13 3 -11 10 1 6 -2
12 -6 12 -4 0 -8 9 -8 19 0 11 4 18 7 15 4 -2 10 0 14 6 3 5 -2 10 -12 10 -15
0 -16 2 -3 10 10 6 11 10 3 10 -7 0 -13 5 -13 11 0 5 4 7 10 4 6 -4 7 1 3 11
-4 11 -3 15 5 10 6 -3 14 -1 18 5 4 7 3 9 -3 6 -6 -4 -15 -1 -20 6 -12 15 -11
73 1 84 5 5 6 2 1 -6 -6 -10 -4 -12 4 -7 8 6 9 12 2 20 -6 7 -8 16 -4 19 3 4
2 7 -4 7 -14 0 -10 35 6 54 12 14 11 16 -5 9 -17 -6 -17 -5 -5 10 10 13 10 17
1 17 -10 0 -10 3 -1 14 7 8 8 17 3 20 -11 7 -9 72 3 83 4 5 5 3 2 -3 -3 -6 0
-11 8 -11 13 0 13 3 0 17 -8 9 -12 20 -8 23 3 4 2 7 -4 7 -16 0 -8 37 12 62
11 13 13 17 5 11 -20 -18 -35 -16 -20 2 10 12 10 15 0 15 -10 0 -10 3 -1 14 7
8 8 17 3 20 -14 8 -8 71 7 90 12 14 11 16 -4 10 -16 -7 -16 -5 1 22 14 22 15
26 3 17 -13 -10 -16 -10 -16 2 0 8 5 15 11 15 6 0 4 5 -4 10 -8 5 -10 10 -3
10 12 0 12 17 0 37 -4 6 -3 14 3 18 6 4 7 12 3 18 -11 19 -10 50 4 74 12 20
11 22 -4 16 -16 -6 -17 -5 -3 13 8 10 20 22 25 26 7 5 6 8 -1 8 -5 0 -15 -5
-21 -11 -13 -13 -13 7 0 29 5 6 4 12 -1 12 -10 0 -10 30 1 46 3 6 3 14 -1 18
-10 10 -10 76 0 70 4 -3 7 6 6 20 -1 15 -5 26 -9 26 -8 0 -5 32 5 48 4 7 2 12
-4 12 -6 0 -8 5 -5 10 4 6 12 8 18 4 7 -3 4 1 -6 9 -12 10 -15 17 -7 22 7 4 7
11 2 18 -11 15 -9 73 2 84 5 4 6 3 3 -3 -3 -6 0 -11 8 -11 13 0 13 3 0 17 -8
9 -12 20 -8 23 3 4 2 7 -4 7 -11 0 -11 29 1 48 4 7 12 9 18 6 7 -4 8 -2 4 4
-4 6 -14 8 -24 5 -15 -6 -15 -5 -3 10 10 13 10 17 1 17 -10 0 -10 3 -1 14 7 8
8 17 3 20 -14 8 -8 71 7 90 12 14 11 16 -4 10 -16 -7 -16 -5 1 22 14 22 15 26
3 17 -13 -10 -16 -10 -16 2 0 8 5 15 11 15 6 0 4 5 -4 10 -8 5 -10 10 -3 10
12 0 12 17 0 37 -4 6 -3 14 3 18 6 4 7 12 3 18 -11 19 -10 50 4 74 12 20 11
22 -4 16 -16 -6 -17 -5 -3 13 8 10 20 22 25 26 7 5 6 8 -1 8 -5 0 -16 -6 -23
-12 -10 -11 -12 -10 -9 2 2 8 10 18 18 22 11 5 10 7 -5 7 -17 1 -17 3 -5 11
10 6 11 10 3 10 -7 0 -13 5 -13 11 0 5 4 7 10 4 6 -4 7 1 3 11 -4 11 -3 15 5
10 6 -3 14 -1 18 5 4 7 3 9 -3 6 -6 -4 -15 -1 -20 6 -12 15 -11 73 1 84 5 5 6
2 1 -6 -6 -10 -4 -12 4 -7 8 6 9 12 2 20 -6 7 -8 16 -4 19 3 4 2 7 -4 7 -14 0
-10 35 6 54 12 14 11 16 -5 9 -17 -6 -17 -5 -5 10 10 13 10 17 1 17 -10 0 -10
3 -1 14 7 8 8 17 3 20 -11 7 -9 72 3 83 4 5 5 3 2 -3 -3 -6 0 -11 8 -11 13 0
13 3 0 17 -8 9 -12 20 -8 23 3 4 2 7 -4 7 -16 0 -8 37 12 62 11 13 13 17 5 11
-20 -18 -35 -16 -20 2 10 12 10 15 0 15 -9 0 -10 3 -1 13 6 8 7 17 3 21 -10
10 -10 76 0 70 4 -3 8 -1 8 5 0 5 -6 11 -12 14 -10 3 -10 8 1 18 12 12 13 12
6 0 -6 -10 -4 -12 5 -6 11 7 10 10 -1 19 -13 10 -22 79 -9 71 3 -1 12 4 20 13
13 14 12 15 -4 9 -14 -5 -17 -3 -13 8 4 8 2 17 -2 19 -11 7 -8 73 4 83 4 5 5
3 2 -3 -3 -6 0 -11 8 -11 13 0 13 3 0 17 -8 9 -12 20 -8 23 3 4 2 7 -3 7 -18
0 -9 51 11 67 20 15 20 15 -1 9 -19 -6 -20 -2 -19 48 0 30 4 58 8 62 12 12 8
26 -5 18 -9 -5 -9 -2 1 9 9 12 10 17 2 17 -7 0 -9 4 -6 10 4 6 -1621 9 -4544
9 l-4550 0 0 -9089z m9099 -404 c0 -3 -4 -8 -10 -11 -5 -3 -10 -1 -10 4 0 6 5
11 10 11 6 0 10 -2 10 -4z m-10 -110 c0 -3 -4 -8 -10 -11 -5 -3 -10 -1 -10 4
0 6 5 11 10 11 6 0 10 -2 10 -4z m-43 -476 c1 -11 -2 -20 -7 -20 -6 0 -7 17
-1 38 3 8 7 -1 8 -18z m-597 -2404 c0 -3 -4 -8 -10 -11 -5 -3 -10 -1 -10 4 0
6 5 11 10 11 6 0 10 -2 10 -4z m-1420 -2381 c-7 -9 -15 -13 -19 -10 -3 3 1 10
9 15 21 14 24 12 10 -5z m-955 -995 c-3 -5 -12 -10 -18 -10 -7 0 -6 4 3 10 19
12 23 12 15 0z m-1994 -1363 c-10 -9 -11 -8 -5 6 3 10 9 15 12 12 3 -3 0 -11
-7 -18z"/>
<path d="M12950 21481 c0 -5 6 -12 13 -14 10 -4 10 -6 0 -6 -16 -1 -17 -51 -2
-51 5 0 7 -5 4 -10 -4 -6 -10 -8 -14 -6 -4 3 -5 -11 -3 -30 2 -18 8 -31 13
-28 5 3 6 -2 3 -10 -3 -9 -9 -14 -13 -12 -3 2 -5 -14 -4 -36 0 -22 7 -44 15
-49 8 -5 8 -9 2 -9 -15 0 -25 -38 -12 -46 6 -4 5 -10 -3 -15 -11 -7 -9 -9 6
-9 13 0 16 -3 8 -8 -7 -4 -12 -16 -12 -27 -1 -39 -1 -55 0 -67 0 -7 -1 -28 -4
-46 -3 -26 -2 -30 9 -22 10 9 11 7 7 -9 -3 -12 -9 -19 -13 -16 -9 6 4 -66 15
-86 8 -12 6 -12 -8 0 -15 12 -17 12 -13 0 12 -34 13 -89 3 -89 -8 0 -8 -3 0
-11 7 -7 8 -20 3 -34 -4 -12 -4 -28 0 -35 5 -8 6 -18 3 -23 -3 -5 1 -13 8 -18
11 -7 10 -9 -5 -9 -14 0 -16 -3 -7 -13 6 -8 8 -17 4 -20 -3 -4 0 -13 7 -22 11
-13 10 -14 -6 -8 -16 6 -17 5 -6 -9 10 -13 10 -17 0 -21 -9 -4 -10 -6 -1 -6 7
-1 10 -8 6 -18 -5 -12 -3 -14 8 -9 8 4 6 1 -4 -7 -10 -9 -14 -18 -9 -21 6 -3
8 -16 4 -28 -4 -16 -2 -19 9 -14 8 4 5 0 -5 -8 -11 -9 -14 -16 -8 -16 7 0 12
-5 12 -11 0 -5 -4 -8 -9 -4 -6 3 -6 -6 -1 -24 6 -21 5 -31 -3 -35 -9 -3 -9 -5
0 -5 8 -1 9 -10 3 -31 -6 -22 -5 -34 6 -45 9 -8 11 -15 6 -15 -14 0 -22 -39
-10 -46 6 -4 5 -10 -3 -15 -11 -7 -9 -9 6 -9 13 0 16 -3 8 -8 -7 -4 -12 -16
-12 -27 -1 -39 -1 -55 0 -67 0 -7 -1 -28 -4 -46 -3 -26 -2 -30 9 -22 10 9 11
7 7 -9 -3 -12 -9 -19 -13 -16 -9 6 4 -66 15 -86 8 -12 6 -12 -8 0 -15 12 -17
12 -13 0 12 -34 13 -89 3 -89 -8 0 -8 -3 0 -11 7 -7 8 -20 3 -34 -4 -12 -4
-28 0 -35 5 -8 6 -18 3 -23 -3 -5 1 -13 8 -18 11 -7 10 -9 -5 -9 -14 0 -16 -3
-7 -13 6 -8 8 -17 4 -20 -3 -4 0 -13 7 -22 11 -13 10 -14 -6 -8 -16 6 -17 5
-6 -9 10 -13 10 -17 0 -21 -9 -4 -10 -6 -1 -6 7 -1 10 -8 6 -18 -5 -12 -3 -14
8 -9 8 4 6 1 -4 -7 -10 -9 -14 -18 -9 -21 6 -3 8 -16 4 -28 -4 -16 -2 -19 9
-14 8 4 5 0 -5 -8 -11 -9 -14 -16 -8 -16 7 0 12 -5 12 -11 0 -5 -4 -8 -9 -4
-6 3 -6 -6 -1 -24 6 -21 5 -31 -3 -35 -9 -3 -9 -5 0 -5 8 -1 9 -10 3 -31 -6
-22 -5 -34 6 -45 9 -8 11 -15 6 -15 -14 0 -22 -39 -10 -46 6 -4 5 -10 -3 -15
-11 -7 -9 -9 6 -9 13 0 16 -3 8 -8 -7 -4 -12 -16 -12 -27 -1 -39 -1 -55 0 -67
0 -7 -1 -28 -4 -46 -3 -26 -2 -30 9 -22 10 9 11 7 7 -9 -3 -12 -9 -19 -13 -16
-9 6 4 -66 15 -86 8 -12 6 -12 -8 0 -15 12 -17 12 -13 0 12 -34 13 -89 3 -89
-8 0 -8 -3 0 -11 7 -7 8 -20 3 -34 -4 -12 -4 -28 0 -35 5 -8 6 -18 3 -23 -3
-5 1 -13 8 -18 11 -7 10 -9 -5 -9 -14 0 -16 -3 -7 -13 6 -8 8 -17 4 -20 -3 -4
0 -13 7 -22 11 -13 10 -14 -6 -8 -16 6 -17 5 -6 -9 10 -13 10 -17 0 -21 -9 -4
-10 -6 -1 -6 7 -1 10 -8 6 -18 -5 -12 -3 -14 8 -9 8 4 6 1 -4 -7 -10 -9 -14
-18 -9 -21 6 -3 8 -16 4 -28 -4 -16 -2 -19 9 -14 8 4 5 0 -5 -8 -11 -9 -14
-16 -8 -16 7 0 12 -5 12 -11 0 -5 -4 -8 -9 -4 -6 3 -6 -6 -1 -24 6 -21 5 -31
-3 -35 -9 -3 -9 -5 0 -5 8 -1 9 -10 3 -31 -6 -22 -5 -34 6 -45 9 -8 11 -15 6
-15 -14 0 -22 -39 -10 -46 6 -4 5 -10 -3 -15 -11 -7 -9 -9 6 -9 13 0 16 -3 8
-8 -7 -4 -12 -16 -12 -27 -1 -39 -1 -55 0 -67 0 -7 -1 -28 -4 -46 -3 -26 -2
-30 9 -22 10 9 11 7 7 -9 -3 -12 -9 -19 -13 -16 -9 6 4 -66 15 -86 8 -12 6
-12 -8 0 -15 12 -17 12 -13 0 12 -34 13 -89 3 -89 -8 0 -8 -3 0 -11 7 -7 8
-20 3 -34 -4 -12 -4 -28 0 -35 5 -8 6 -18 3 -23 -3 -5 1 -13 8 -18 11 -7 10
-9 -5 -9 -14 0 -16 -3 -7 -13 6 -8 8 -17 4 -20 -3 -4 0 -13 7 -22 11 -13 10
-14 -6 -8 -16 6 -17 5 -6 -9 10 -13 10 -17 0 -21 -9 -4 -10 -6 -1 -6 7 -1 10
-8 6 -18 -5 -12 -3 -14 8 -9 8 4 6 1 -4 -7 -10 -9 -14 -18 -9 -21 6 -3 8 -16
4 -28 -4 -16 -2 -19 9 -14 8 4 5 0 -5 -8 -11 -9 -14 -16 -8 -16 7 0 12 -5 12
-11 0 -5 -4 -8 -9 -4 -6 3 -6 -6 -1 -24 6 -21 5 -31 -3 -35 -9 -3 -9 -5 0 -5
8 -1 9 -10 3 -31 -6 -22 -5 -34 6 -45 9 -8 11 -15 6 -15 -14 0 -22 -39 -10
-46 6 -4 5 -10 -3 -15 -11 -7 -9 -9 6 -9 13 0 16 -3 8 -8 -7 -4 -12 -16 -12
-27 -1 -39 -1 -55 0 -67 0 -7 -1 -28 -4 -46 -3 -26 -2 -30 9 -22 10 9 11 7 7
-9 -3 -12 -10 -21 -15 -21 -5 0 -6 -5 -2 -12 11 -17 10 -77 -1 -82 -5 -3 -5
-5 2 -5 7 -1 10 -8 6 -18 -5 -12 -3 -14 8 -9 8 4 6 1 -3 -7 -18 -14 -25 -33
-9 -23 4 3 7 -8 5 -25 -3 -21 0 -28 9 -24 6 4 4 0 -6 -8 -11 -9 -14 -18 -8
-21 6 -4 7 -15 1 -30 -6 -16 -5 -28 3 -36 9 -10 9 -14 -1 -17 -6 -3 -9 -10 -6
-15 11 -17 10 -78 -1 -82 -5 -3 -5 -5 2 -5 7 -1 10 -8 6 -18 -5 -12 -3 -14 8
-9 8 4 6 1 -3 -7 -18 -14 -25 -33 -9 -23 4 3 7 -8 5 -25 -3 -21 0 -28 9 -24 6
4 4 0 -6 -8 -11 -9 -14 -18 -8 -21 6 -4 7 -15 1 -30 -6 -16 -5 -28 3 -36 9
-10 9 -14 -1 -17 -6 -3 -9 -10 -6 -15 11 -17 10 -78 -1 -82 -5 -3 -5 -5 2 -5
7 -1 10 -8 6 -18 -5 -12 -3 -14 8 -9 8 4 6 1 -3 -7 -18 -14 -25 -33 -9 -23 4
3 7 -8 5 -25 -3 -21 0 -28 9 -24 6 4 4 0 -6 -8 -11 -9 -14 -18 -8 -21 6 -4 7
-15 1 -30 -6 -16 -5 -28 3 -36 9 -10 9 -14 -1 -17 -6 -3 -9 -10 -6 -15 11 -17
10 -78 -1 -82 -5 -3 -5 -5 2 -5 7 -1 10 -8 6 -18 -5 -12 -3 -14 8 -9 8 4 6 1
-3 -7 -18 -14 -25 -33 -9 -23 4 3 7 -8 5 -25 -3 -21 0 -28 9 -24 6 4 4 0 -6
-8 -11 -9 -14 -18 -8 -21 6 -4 7 -15 1 -30 -6 -16 -5 -28 3 -36 9 -10 9 -14
-1 -17 -6 -3 -9 -10 -6 -15 11 -17 10 -78 -1 -82 -5 -3 -5 -5 2 -5 7 -1 10 -8
6 -18 -5 -12 -3 -14 8 -9 8 4 6 1 -3 -7 -18 -14 -25 -33 -9 -23 4 3 7 -8 5
-25 -3 -21 0 -28 9 -24 6 4 4 0 -6 -8 -11 -9 -14 -18 -8 -21 6 -4 7 -15 1 -30
-6 -16 -5 -28 3 -36 9 -10 9 -14 -1 -17 -6 -3 -9 -10 -6 -15 11 -17 10 -78 -1
-82 -5 -3 -5 -5 2 -5 7 -1 10 -8 6 -18 -5 -12 -3 -14 8 -9 8 4 6 1 -3 -7 -18
-14 -25 -33 -9 -23 4 3 7 -8 5 -25 -3 -21 0 -28 9 -24 6 4 4 0 -6 -8 -11 -9
-14 -18 -8 -21 6 -4 7 -15 1 -30 -6 -16 -5 -28 3 -36 9 -10 9 -14 -1 -17 -6
-3 -9 -10 -6 -15 11 -17 10 -78 -1 -82 -5 -3 -5 -5 2 -5 7 -1 10 -8 6 -18 -5
-12 -3 -14 8 -9 8 4 6 1 -3 -7 -18 -14 -25 -33 -9 -23 4 3 7 -8 5 -25 -3 -21
0 -28 9 -24 6 4 4 0 -6 -8 -11 -9 -14 -18 -8 -21 6 -4 7 -15 1 -30 -6 -16 -5
-28 3 -36 9 -10 9 -14 -1 -17 -6 -3 -9 -10 -6 -15 11 -17 10 -78 -1 -82 -5 -3
-5 -5 2 -5 7 -1 10 -8 6 -18 -5 -12 -3 -14 8 -9 8 4 6 1 -3 -7 -18 -14 -25
-33 -9 -23 4 3 7 -8 5 -25 -3 -21 0 -28 9 -24 6 4 4 0 -6 -8 -11 -9 -14 -18
-8 -21 6 -4 7 -15 1 -30 -6 -16 -5 -28 3 -36 9 -10 9 -14 -1 -17 -6 -3 -9 -10
-6 -15 11 -17 10 -78 -1 -82 -5 -3 -5 -5 2 -5 7 -1 10 -8 6 -18 -5 -12 -3 -14
8 -9 8 4 6 1 -3 -7 -18 -14 -25 -33 -9 -23 4 3 7 -8 5 -25 -3 -21 0 -28 9 -24
6 4 4 0 -6 -8 -11 -9 -14 -18 -8 -21 6 -4 7 -15 1 -30 -6 -16 -5 -28 3 -36 9
-10 9 -14 -1 -17 -6 -3 -9 -10 -6 -15 11 -17 10 -78 -1 -82 -5 -3 -5 -5 2 -5
7 -1 10 -8 6 -18 -5 -12 -3 -14 8 -9 8 4 6 1 -3 -7 -18 -14 -25 -33 -9 -23 4
3 7 -8 5 -25 -3 -21 0 -28 9 -24 6 4 4 0 -6 -8 -11 -9 -14 -18 -8 -21 6 -4 7
-15 1 -30 -6 -16 -5 -28 3 -36 9 -10 9 -14 -1 -17 -6 -3 -9 -10 -6 -15 11 -17
10 -78 -1 -82 -5 -3 -5 -5 2 -5 7 -1 10 -8 6 -18 -5 -12 -3 -14 8 -9 8 4 6 1
-3 -7 -18 -14 -25 -33 -9 -23 4 3 7 -8 5 -25 -3 -21 0 -28 9 -24 6 4 4 0 -6
-8 -11 -9 -14 -18 -8 -21 6 -4 7 -15 1 -30 -6 -16 -5 -28 3 -36 9 -10 9 -14
-1 -17 -6 -3 -9 -10 -6 -15 11 -17 10 -78 -1 -82 -5 -3 -5 -5 2 -5 7 -1 10 -8
6 -18 -5 -12 -3 -14 8 -9 8 4 6 1 -3 -7 -18 -14 -25 -33 -9 -23 4 3 7 -8 5
-25 -3 -21 0 -28 9 -24 6 4 4 0 -6 -8 -11 -9 -14 -18 -8 -21 6 -4 7 -15 1 -30
-6 -16 -5 -28 3 -36 9 -10 9 -14 -1 -17 -6 -3 -9 -10 -6 -15 11 -17 10 -78 -1
-82 -5 -3 -5 -5 2 -5 7 -1 10 -8 6 -18 -5 -12 -3 -14 8 -9 8 4 6 1 -3 -7 -18
-14 -25 -33 -9 -23 4 3 7 -8 5 -25 -3 -21 0 -28 9 -24 6 4 4 0 -6 -8 -11 -9
-14 -18 -8 -21 6 -4 7 -15 1 -30 -6 -16 -5 -28 3 -36 9 -10 9 -14 -1 -17 -6
-3 -9 -10 -6 -15 11 -17 10 -78 -1 -82 -5 -3 -5 -5 2 -5 7 -1 10 -8 6 -18 -5
-12 -3 -14 8 -9 8 4 6 1 -3 -7 -18 -14 -25 -33 -9 -23 4 3 7 -8 5 -25 -3 -21
0 -28 9 -24 6 4 4 0 -6 -8 -11 -9 -14 -18 -8 -21 6 -4 7 -15 1 -30 -6 -16 -5
-28 3 -36 9 -10 9 -14 -1 -17 -6 -3 -9 -10 -6 -15 11 -17 10 -78 -1 -82 -5 -3
-5 -5 2 -5 7 -1 10 -8 6 -18 -5 -12 -3 -14 8 -9 8 4 6 1 -3 -7 -18 -14 -25
-33 -9 -23 4 3 7 -8 5 -25 -3 -21 0 -28 9 -24 6 4 4 0 -6 -8 -11 -9 -14 -18
-8 -21 6 -4 7 -15 1 -30 -6 -16 -5 -28 3 -36 9 -10 9 -14 -1 -17 -6 -3 -9 -10
-6 -15 11 -17 10 -78 -1 -82 -5 -3 -5 -5 2 -5 7 -1 10 -8 6 -18 -5 -12 -3 -14
8 -9 8 4 6 1 -3 -7 -18 -14 -25 -33 -9 -23 4 3 7 -8 5 -25 -3 -21 0 -28 9 -24
6 4 4 0 -6 -8 -11 -9 -14 -18 -8 -21 7 -4 7 -15 1 -31 -6 -15 -6 -27 0 -30 7
-4 6 -13 0 -25 -7 -14 -6 -23 6 -34 8 -9 11 -16 6 -16 -14 0 -22 -39 -10 -46
6 -4 5 -10 -3 -15 -11 -7 -9 -9 6 -9 13 0 16 -3 8 -8 -7 -4 -12 -16 -12 -27
-1 -39 -1 -55 0 -67 0 -7 -1 -28 -4 -46 -3 -26 -2 -30 9 -22 10 9 11 7 7 -9
-3 -12 -9 -19 -13 -16 -9 6 4 -66 15 -86 8 -12 6 -12 -8 0 -15 12 -17 12 -13
0 12 -34 13 -89 3 -89 -8 0 -8 -3 0 -11 7 -7 8 -20 3 -34 -4 -12 -4 -28 0 -35
5 -8 6 -18 3 -23 -3 -5 1 -13 8 -18 11 -7 10 -9 -5 -9 -14 0 -16 -3 -7 -13 6
-8 8 -17 4 -20 -3 -4 0 -13 7 -22 11 -13 10 -14 -6 -8 -16 6 -17 5 -6 -9 10
-13 10 -17 0 -21 -9 -4 -10 -6 -1 -6 7 -1 10 -8 6 -18 -5 -12 -3 -14 8 -9 8 4
6 1 -4 -7 -10 -9 -14 -18 -9 -21 6 -3 8 -16 4 -28 -4 -16 -2 -19 9 -14 8 4 5
0 -5 -8 -11 -9 -14 -16 -8 -16 7 0 12 -5 12 -11 0 -5 -4 -8 -9 -4 -6 3 -6 -6
-1 -24 6 -21 5 -31 -3 -35 -9 -3 -9 -5 0 -5 8 -1 9 -10 3 -31 -6 -22 -5 -34 6
-45 9 -8 11 -15 6 -15 -14 0 -22 -39 -10 -46 6 -4 5 -10 -3 -15 -11 -7 -9 -9
6 -9 13 0 16 -3 8 -8 -7 -4 -12 -16 -12 -27 -1 -39 -1 -55 0 -67 0 -7 -1 -28
-4 -46 -3 -26 -2 -30 9 -22 10 9 11 7 7 -9 -3 -12 -9 -19 -13 -16 -9 6 4 -66
15 -86 8 -12 6 -12 -8 0 -15 12 -17 12 -13 0 12 -34 13 -89 3 -89 -8 0 -8 -3
0 -11 7 -7 8 -20 3 -34 -4 -12 -4 -28 0 -35 5 -8 6 -18 3 -23 -3 -5 1 -13 8
-18 11 -7 10 -9 -5 -9 -14 0 -16 -3 -7 -13 6 -8 8 -17 4 -20 -3 -4 0 -13 7
-22 11 -13 10 -14 -6 -8 -16 6 -17 5 -6 -9 10 -13 10 -17 0 -21 -9 -4 -10 -6
-1 -6 7 -1 10 -8 6 -18 -5 -12 -3 -14 8 -9 8 4 6 1 -4 -7 -10 -9 -14 -18 -9
-21 6 -3 8 -16 4 -28 -4 -16 -2 -19 9 -14 8 4 5 0 -5 -8 -11 -9 -14 -16 -8
-16 7 0 12 -5 12 -11 0 -5 -4 -8 -9 -4 -6 3 -6 -6 -1 -24 6 -21 5 -31 -3 -35
-9 -3 -9 -5 0 -5 8 -1 9 -10 3 -31 -6 -22 -5 -34 6 -45 9 -8 11 -15 6 -15 -14
0 -22 -39 -10 -46 6 -4 5 -10 -3 -15 -11 -7 -9 -9 6 -9 13 0 16 -3 8 -8 -7 -4
-12 -16 -12 -27 -1 -39 -1 -55 0 -67 0 -7 -1 -28 -4 -46 -3 -26 -2 -30 9 -22
10 9 11 7 7 -9 -3 -12 -9 -19 -13 -16 -9 6 4 -66 15 -86 8 -12 6 -12 -8 0 -15
12 -17 12 -13 0 12 -34 13 -89 3 -89 -8 0 -8 -3 0 -11 7 -7 8 -20 3 -34 -4
-12 -4 -28 0 -35 5 -8 6 -18 3 -23 -3 -5 1 -13 8 -18 11 -7 10 -9 -5 -9 -14 0
-16 -3 -7 -13 6 -8 8 -17 4 -20 -3 -4 0 -13 7 -22 11 -13 10 -14 -6 -8 -16 6
-17 5 -6 -9 10 -13 10 -17 0 -21 -9 -4 -10 -6 -1 -6 7 -1 10 -8 6 -18 -5 -12
-3 -14 8 -9 8 4 6 1 -4 -7 -10 -9 -14 -18 -9 -21 6 -3 8 -16 4 -28 -4 -16 -2
-19 9 -14 8 4 5 0 -5 -8 -11 -9 -14 -16 -8 -16 7 0 12 -5 12 -11 0 -5 -4 -8
-9 -4 -6 3 -6 -6 -1 -24 6 -21 5 -31 -3 -35 -9 -3 -9 -5 0 -5 8 -1 9 -10 3
-31 -6 -22 -5 -34 6 -45 9 -8 11 -15 6 -15 -14 0 -22 -39 -10 -46 6 -4 5 -10
-3 -15 -11 -7 -9 -9 6 -9 13 0 16 -3 8 -8 -7 -4 -12 -16 -12 -27 -1 -39 -1
-55 0 -67 0 -7 -1 -28 -4 -46 -3 -26 -2 -30 9 -22 10 9 11 7 7 -9 -3 -12 -9
-19 -13 -16 -9 6 4 -66 15 -86 8 -12 6 -12 -8 0 -15 12 -17 12 -13 0 12 -34
13 -89 3 -89 -8 0 -8 -3 0 -11 7 -7 8 -20 3 -34 -4 -12 -4 -28 0 -35 5 -8 6
-18 3 -23 -3 -5 1 -13 8 -18 11 -7 10 -9 -5 -9 -14 0 -16 -3 -7 -13 6 -8 8
-17 4 -20 -3 -4 0 -13 7 -22 11 -13 10 -14 -6 -8 -16 6 -17 5 -6 -9 10 -13 10
-17 0 -21 -9 -4 -10 -6 -1 -6 7 -1 10 -8 6 -18 -5 -12 -3 -14 8 -9 8 4 6 1 -4
-7 -10 -9 -14 -18 -9 -21 6 -3 8 -16 4 -28 -4 -16 -2 -19 9 -14 8 4 5 0 -5 -8
-11 -9 -14 -16 -8 -16 7 0 12 -5 12 -11 0 -5 -4 -8 -9 -4 -6 3 -6 -6 -1 -24 6
-21 5 -31 -3 -35 -9 -3 -9 -5 0 -5 8 -1 9 -10 3 -31 -6 -22 -5 -34 6 -45 9 -8
11 -15 6 -15 -14 0 -22 -39 -10 -46 6 -4 5 -10 -3 -15 -11 -7 -9 -9 6 -9 13 0
16 -3 8 -8 -7 -4 -12 -16 -12 -27 -1 -39 -1 -55 0 -67 0 -7 -1 -28 -4 -46 -3
-26 -2 -30 9 -22 10 9 11 7 7 -9 -3 -12 -9 -19 -13 -16 -9 6 4 -66 15 -86 8
-12 6 -12 -8 0 -15 12 -17 12 -13 0 12 -34 13 -89 3 -89 -8 0 -8 -3 0 -11 7
-7 8 -20 3 -34 -4 -12 -4 -28 0 -35 5 -8 6 -18 3 -23 -3 -5 1 -13 8 -18 11 -7
10 -9 -5 -9 -14 0 -16 -3 -7 -13 6 -8 8 -17 4 -20 -3 -4 0 -13 7 -22 11 -13
10 -14 -6 -8 -16 6 -17 5 -6 -9 10 -13 10 -17 0 -21 -9 -4 -10 -6 -1 -6 7 -1
10 -8 6 -18 -5 -12 -3 -14 8 -9 8 4 6 1 -4 -7 -10 -9 -14 -18 -9 -21 6 -3 8
-16 4 -28 -4 -16 -2 -19 9 -14 8 4 5 0 -5 -8 -11 -9 -14 -16 -8 -16 7 0 12 -5
12 -11 0 -5 -4 -8 -9 -4 -6 3 -6 -6 -1 -24 6 -21 5 -31 -3 -35 -9 -3 -9 -5 0
-5 8 -1 9 -10 3 -31 -6 -22 -5 -34 6 -45 9 -8 11 -15 6 -15 -14 0 -22 -39 -10
-46 6 -4 5 -10 -3 -15 -11 -7 -9 -9 6 -9 13 0 16 -3 8 -8 -7 -4 -12 -16 -12
-27 -1 -39 -1 -55 0 -67 0 -7 -1 -28 -4 -46 -3 -26 -2 -30 9 -22 10 9 11 7 7
-9 -3 -12 -10 -21 -15 -21 -5 0 -6 -5 -2 -12 11 -17 10 -77 -1 -82 -5 -3 -5
-5 2 -5 7 -1 10 -8 6 -18 -5 -12 -3 -14 8 -9 8 4 6 1 -3 -7 -18 -14 -25 -33
-9 -23 4 3 7 -8 5 -25 -3 -21 0 -28 9 -24 6 4 4 0 -6 -8 -11 -9 -14 -18 -8
-21 6 -4 7 -15 1 -30 -6 -16 -5 -28 3 -36 9 -10 9 -14 -1 -17 -6 -3 -9 -10 -6
-15 11 -17 10 -78 -1 -82 -5 -3 -5 -5 2 -5 7 -1 10 -8 6 -18 -5 -12 -3 -14 8
-9 8 4 6 1 -3 -7 -18 -14 -25 -33 -9 -23 4 3 7 -8 5 -25 -3 -21 0 -28 9 -24 6
4 4 0 -6 -8 -11 -9 -14 -18 -8 -21 6 -4 7 -15 1 -30 -6 -16 -5 -28 3 -36 9
-10 9 -14 -1 -17 -6 -3 -9 -10 -6 -15 11 -17 10 -78 -1 -82 -5 -3 -5 -5 2 -5
7 -1 10 -8 6 -18 -5 -12 -3 -14 8 -9 8 4 6 1 -3 -7 -18 -14 -25 -33 -9 -23 4
3 7 -8 5 -25 -3 -21 0 -28 9 -24 6 4 4 0 -6 -8 -11 -9 -14 -18 -8 -21 6 -4 7
-15 1 -30 -6 -16 -5 -28 3 -36 9 -10 9 -14 -1 -17 -6 -3 -9 -10 -6 -15 11 -17
10 -78 -1 -82 -5 -3 -5 -5 2 -5 7 -1 10 -8 6 -18 -5 -12 -3 -14 8 -9 8 4 6 1
-3 -7 -18 -14 -25 -33 -9 -23 4 3 7 -8 5 -25 -3 -21 0 -28 9 -24 6 4 4 0 -6
-8 -11 -9 -14 -18 -8 -21 6 -4 7 -15 1 -30 -6 -16 -5 -28 3 -36 9 -10 9 -14
-1 -17 -6 -3 -9 -10 -6 -15 11 -17 10 -78 -1 -82 -5 -3 -5 -5 2 -5 7 -1 10 -8
6 -18 -5 -12 -3 -14 8 -9 8 4 6 1 -3 -7 -18 -14 -25 -33 -9 -23 4 3 7 -8 5
-25 -3 -21 0 -28 9 -24 6 4 4 0 -6 -8 -11 -9 -14 -18 -8 -21 6 -4 7 -15 1 -30
-6 -16 -5 -28 3 -36 9 -10 9 -14 -1 -17 -6 -3 -9 -10 -6 -15 11 -17 10 -78 -1
-82 -5 -3 -5 -5 2 -5 7 -1 10 -8 6 -18 -5 -12 -3 -14 8 -9 8 4 6 1 -3 -7 -18
-14 -25 -33 -9 -23 4 3 7 -8 5 -25 -3 -21 0 -28 9 -24 6 4 4 0 -6 -8 -11 -9
-14 -18 -8 -21 6 -4 7 -15 1 -30 -6 -16 -5 -28 3 -36 9 -10 9 -14 -1 -17 -6
-3 -9 -10 -6 -15 11 -17 10 -78 -1 -82 -5 -3 -5 -5 2 -5 7 -1 10 -8 6 -18 -5
-12 -3 -14 8 -9 8 4 6 1 -3 -7 -18 -14 -25 -33 -9 -23 4 3 7 -8 5 -25 -3 -21
0 -28 9 -24 6 4 4 0 -6 -8 -11 -9 -14 -18 -8 -21 6 -4 7 -15 1 -30 -6 -16 -5
-28 3 -36 9 -10 9 -14 -1 -17 -6 -3 -9 -10 -6 -15 11 -17 10 -78 -1 -82 -5 -3
-5 -5 2 -5 7 -1 10 -8 6 -18 -5 -12 -3 -14 8 -9 8 4 6 1 -3 -7 -18 -14 -25
-33 -9 -23 4 3 7 -8 5 -25 -3 -21 0 -28 9 -24 6 4 4 0 -6 -8 -11 -9 -14 -18
-8 -21 7 -4 7 -15 1 -31 -6 -15 -6 -27 0 -30 7 -4 6 -13 0 -25 -7 -14 -6 -23
6 -34 8 -9 11 -16 6 -16 -14 0 -22 -39 -10 -46 6 -4 5 -10 -3 -15 -11 -7 -9
-9 6 -9 13 0 16 -3 8 -8 -7 -4 -12 -16 -12 -27 -1 -39 -1 -55 0 -67 0 -7 -1
-28 -4 -46 -3 -26 -2 -30 9 -22 10 9 11 7 7 -9 -3 -12 -9 -19 -13 -16 -9 6 4
-66 15 -86 8 -12 6 -12 -8 0 -15 12 -17 12 -13 0 12 -34 13 -89 3 -89 -8 0 -8
-3 0 -11 7 -7 8 -20 3 -34 -4 -12 -4 -28 0 -35 5 -8 6 -18 3 -23 -3 -5 1 -13
8 -18 11 -7 10 -9 -5 -9 -14 0 -16 -3 -7 -13 6 -8 8 -17 4 -20 -3 -4 0 -13 7
-22 11 -13 10 -14 -6 -8 -16 6 -17 5 -6 -9 10 -13 10 -17 0 -21 -9 -4 -10 -6
-1 -6 7 -1 10 -8 6 -18 -5 -12 -3 -14 8 -9 8 4 6 1 -4 -7 -10 -9 -14 -18 -9
-21 6 -3 8 -16 4 -28 -4 -16 -2 -19 9 -14 8 4 5 0 -5 -8 -11 -9 -14 -16 -8
-16 7 0 12 -5 12 -11 0 -5 -4 -8 -9 -4 -6 3 -6 -6 -1 -24 6 -21 5 -31 -3 -35
-7 -2 -7 -5 -2 -5 6 -1 9 -18 7 -41 l-4 -40 217 1 c197 1 216 2 211 17 -5 15
-4 15 8 0 17 -23 73 -23 100 -1 17 15 18 15 8 2 -11 -15 -8 -17 23 -16 23 1
35 6 35 15 0 9 6 12 16 8 9 -3 18 -6 20 -6 3 0 3 -4 0 -8 -3 -5 1 -9 8 -9 8 0
12 6 9 14 -4 9 0 11 11 7 9 -3 14 -9 11 -13 -2 -4 2 -8 9 -8 7 0 13 6 13 13 0
7 -4 11 -8 8 -4 -2 -10 -1 -13 4 -2 4 6 8 19 8 14 0 21 -4 17 -11 -3 -5 2 -4
11 4 11 9 17 10 17 2 0 -6 5 -11 11 -11 5 0 8 4 5 8 -2 4 4 9 15 9 11 1 17 -2
14 -7 -7 -11 22 -7 32 5 4 4 2 5 -6 0 -9 -5 -12 -4 -7 3 7 12 36 5 36 -9 0 -5
5 -9 11 -9 5 0 8 4 5 9 -3 5 3 11 14 14 11 3 18 1 14 -4 -10 -16 8 -9 23 9 8
9 12 12 9 6 -3 -7 1 -14 9 -18 9 -3 15 0 15 9 0 8 5 15 11 15 6 0 8 -8 5 -17
-5 -15 -4 -15 9 1 10 13 15 15 15 6 0 -9 4 -8 13 5 11 14 16 15 22 5 5 -8 4
-11 -2 -7 -5 3 -10 -1 -10 -11 0 -12 5 -9 20 10 19 26 21 26 46 10 18 -13 23
-13 16 -3 -6 11 -4 13 8 8 10 -4 17 -1 17 6 0 8 3 7 9 -2 8 -12 12 -12 24 -2
12 9 16 9 20 -1 4 -10 6 -10 6 0 1 6 6 12 12 12 5 0 7 -4 4 -10 -3 -5 -2 -10
3 -10 16 0 22 13 11 26 -7 9 -6 12 8 10 11 -2 17 -10 15 -22 -2 -11 1 -15 5
-9 4 6 15 10 23 10 8 -1 23 5 33 13 9 8 17 11 17 5 0 -5 7 -10 15 -10 9 0 11
4 6 11 -6 7 -2 11 14 11 13 0 22 -2 20 -5 -2 -3 5 -6 15 -6 10 0 16 4 14 8 -3
4 -1 8 5 8 5 0 12 -6 14 -12 4 -10 6 -10 6 0 1 7 6 10 13 6 8 -5 9 -1 5 12 -7
18 -7 18 8 0 11 -14 15 -16 15 -5 0 12 2 12 10 -1 9 -14 14 -7 11 13 -1 5 3 6
8 3 5 -4 13 -2 16 4 5 8 11 7 21 -1 11 -9 18 -8 31 2 15 12 16 12 8 -1 -6 -10
-2 -9 12 3 15 13 23 15 28 7 6 -9 9 -9 15 0 5 8 12 7 24 -5 9 -9 16 -13 16 -8
0 5 -6 15 -12 22 -11 10 -9 11 6 5 15 -6 17 -4 11 6 -5 9 -4 11 4 6 6 -4 8
-13 4 -19 -4 -7 0 -6 10 2 14 11 17 11 17 0 1 -10 3 -9 10 3 6 9 18 15 28 13
9 -2 17 -4 17 -5 0 -1 8 -3 18 -5 10 -2 14 1 10 8 -4 6 0 8 10 4 10 -3 17 -2
17 2 0 5 -6 11 -12 14 -7 2 1 4 18 3 23 -1 30 -5 26 -16 -3 -8 5 -4 17 10 12
14 20 20 17 13 -4 -7 1 -9 14 -6 11 3 17 10 13 17 -4 6 2 4 12 -4 17 -14 18
-13 11 4 -7 19 -6 19 12 3 18 -17 20 -16 35 5 15 20 16 21 11 3 -5 -18 -4 -18
8 -3 11 12 18 14 32 6 13 -7 17 -7 12 0 -3 5 2 13 11 17 10 3 19 1 21 -5 2 -6
12 -1 23 11 15 17 19 18 19 6 0 -8 -6 -18 -12 -20 -10 -4 -10 -6 0 -6 8 -1 16
8 19 20 4 16 8 17 14 7 7 -11 9 -11 9 1 0 11 3 11 15 1 12 -10 15 -9 16 6 0
18 1 18 9 -1 7 -17 9 -17 9 -3 1 12 6 15 18 11 12 -5 14 -3 8 8 -7 11 -5 11
10 -1 15 -12 17 -12 10 -1 -6 11 -4 13 8 8 10 -4 17 -2 17 5 0 7 4 7 14 -1 11
-9 16 -9 22 0 5 8 3 9 -6 4 -9 -5 -11 -4 -6 4 5 8 12 9 20 2 8 -7 22 -4 45 10
18 11 30 15 26 9 -3 -5 -2 -10 3 -10 6 0 13 7 16 16 6 15 9 14 34 -2 21 -14
24 -14 14 -2 -9 11 -10 18 -2 23 5 3 10 0 10 -7 0 -10 2 -10 9 1 5 7 14 10 20
7 6 -4 11 0 11 8 0 9 5 16 11 16 6 0 8 -7 5 -17 -6 -14 -3 -14 15 3 14 11 19
13 14 4 -7 -12 -6 -13 6 -4 8 6 22 12 32 13 9 1 25 2 36 3 12 2 17 8 13 16 -4
12 -1 12 18 2 12 -7 20 -8 16 -2 -3 5 1 13 10 16 10 4 13 2 8 -7 -4 -6 3 -2
15 11 18 18 25 20 43 11 18 -9 20 -9 15 4 -5 13 -1 14 23 7 24 -7 28 -6 23 8
-4 10 -3 14 2 10 4 -4 14 0 23 8 9 10 18 12 25 5 6 -6 21 -3 42 9 25 14 35 16
44 7 9 -9 11 -8 5 6 -5 15 -3 16 20 8 25 -10 46 1 26 14 -5 3 -10 11 -10 16 0
6 7 3 16 -5 18 -19 28 -21 18 -4 -5 8 0 9 14 6 12 -4 25 -2 28 3 3 6 15 7 27
4 17 -5 19 -4 7 4 -13 10 -8 15 13 12 4 0 7 4 7 9 0 7 7 7 21 -1 16 -8 20 -8
14 1 -4 7 -1 10 8 8 9 -2 23 6 31 17 14 18 15 18 16 2 0 -15 2 -16 14 -5 8 7
13 17 13 22 -1 5 12 10 28 10 17 1 34 7 38 14 7 11 11 11 25 0 14 -11 15 -10
9 6 -6 16 -5 17 8 6 13 -11 14 -10 10 2 -4 9 0 15 10 15 8 0 15 -4 15 -9 0 -5
5 -6 10 -3 6 4 7 11 4 17 -4 5 4 4 17 -3 23 -12 23 -11 9 6 -14 17 -14 18 10
5 24 -13 24 -12 10 5 -9 11 -10 16 -2 11 7 -4 12 -2 12 6 0 10 2 10 9 -1 6 -9
11 -10 15 -2 4 6 12 9 17 6 5 -4 9 2 10 12 0 10 3 13 6 6 2 -7 9 -13 14 -13 6
0 7 5 4 10 -5 9 24 15 48 11 5 -1 5 4 1 10 -5 9 -2 10 9 6 10 -4 17 -2 17 4 0
6 6 9 13 6 7 -3 24 2 38 10 13 8 16 12 7 9 -10 -3 -20 -1 -22 3 -3 5 9 8 27 8
45 0 67 11 60 31 -4 13 -2 12 11 -3 10 -11 15 -15 12 -8 -4 6 -2 14 4 18 5 3
10 0 10 -7 1 -7 7 -2 15 12 8 14 14 19 15 12 0 -7 5 -10 10 -7 6 4 7 11 4 17
-4 6 3 5 16 -2 15 -8 20 -8 16 -1 -4 6 0 11 9 11 9 0 13 4 10 10 -4 6 1 7 11
3 12 -4 15 -3 10 5 -10 16 7 15 23 -1 10 -10 11 -8 5 6 -7 19 14 21 29 2 5 -5
5 1 2 14 -5 17 -4 21 5 16 7 -4 16 -1 21 6 7 11 9 11 9 1 0 -10 4 -9 16 2 8 9
21 13 27 9 9 -5 9 -3 0 8 -10 12 -8 15 7 15 10 0 16 -5 13 -11 -3 -5 6 4 21
20 14 17 25 26 26 21 0 -5 8 -2 17 5 11 10 14 10 9 2 -4 -8 -1 -13 9 -13 9 0
13 5 10 10 -3 6 1 10 9 10 9 0 16 8 16 18 0 9 4 13 8 7 12 -17 35 -17 28 0 -4
12 0 14 20 11 22 -4 24 -3 13 10 -10 12 -9 13 5 8 10 -4 16 -1 16 7 0 11 3 11
10 -1 7 -11 10 -11 10 -2 0 7 5 10 12 6 7 -5 8 -3 3 6 -11 17 16 32 33 18 10
-9 12 -8 10 3 -2 9 5 14 19 13 13 -1 20 3 17 7 -3 5 2 9 10 9 8 0 18 5 22 12
4 7 3 8 -4 4 -7 -4 -12 -2 -12 3 0 14 13 14 28 -1 9 -9 14 -6 21 13 5 13 10
18 10 11 1 -7 6 -10 11 -7 6 4 8 10 5 14 -2 5 6 7 20 6 16 -2 22 1 19 10 -3 7
0 16 7 21 8 4 10 3 5 -4 -4 -7 -3 -12 1 -12 5 0 14 9 21 20 13 22 48 29 37 8
-4 -7 3 -2 14 11 12 13 21 19 21 15 0 -5 5 -1 11 10 9 15 13 16 20 5 7 -11 9
-9 10 6 1 11 1 24 0 29 -1 5 5 4 13 -3 13 -11 17 -10 22 3 3 9 10 16 16 16 5
0 6 -6 2 -13 -3 -6 4 -1 17 13 13 14 20 19 14 11 -5 -8 5 -4 23 9 17 13 32 29
32 34 0 6 5 4 10 -4 8 -13 10 -12 10 3 0 11 4 15 12 11 8 -5 9 -2 4 11 -5 15
-4 16 9 5 11 -9 15 -9 15 -1 0 7 5 9 10 6 6 -3 10 0 10 8 0 8 7 18 16 21 15 6
15 4 3 -11 -13 -16 -12 -17 4 -4 9 7 17 20 17 27 0 8 5 14 11 14 5 0 7 -6 4
-12 -4 -7 -1 -6 7 3 7 9 21 15 30 13 10 -1 21 3 25 8 3 7 1 8 -5 4 -7 -4 -12
-3 -12 2 0 6 14 15 30 21 17 5 30 17 30 26 0 12 4 13 18 6 12 -6 21 -4 31 6
12 13 11 15 -10 10 -19 -5 -19 -4 4 5 15 7 27 17 27 22 0 6 5 4 10 -4 8 -13
10 -13 10 2 0 11 5 15 15 12 9 -4 22 6 36 28 11 18 19 25 16 16 -4 -12 -2 -15
8 -11 8 3 12 9 9 14 -5 9 10 13 30 10 5 -1 4 4 -2 12 -10 12 -8 14 14 11 19
-2 24 1 20 12 -4 10 0 14 12 12 9 -2 16 3 15 10 -2 6 2 12 8 12 5 0 7 5 3 12
-4 7 -3 8 5 4 6 -4 9 -13 5 -19 -3 -7 1 -4 9 5 8 10 17 15 20 11 4 -3 7 1 7
11 0 9 4 15 8 12 5 -3 14 4 22 14 8 10 17 17 22 14 4 -3 8 0 8 6 0 6 12 15 26
20 16 6 23 14 18 22 -4 7 3 4 17 -7 19 -16 21 -17 10 -2 -13 16 -12 19 8 24
13 3 20 11 17 19 -3 8 2 11 15 9 20 -4 44 26 31 41 -4 5 0 3 10 -4 19 -15 34
0 22 21 -5 8 -2 7 9 -2 15 -12 17 -12 11 4 -5 13 -4 16 4 11 7 -4 12 -2 12 4
0 6 5 8 10 5 6 -3 10 -1 10 5 0 6 4 8 10 5 6 -3 7 1 4 9 -4 11 0 16 11 16 10
0 13 4 9 12 -5 8 -2 8 10 -1 9 -8 16 -10 14 -5 -2 5 5 20 15 34 9 13 17 20 17
14 0 -5 -6 -16 -12 -24 -7 -7 -1 -5 14 6 21 15 24 22 15 33 -9 11 -9 13 0 8 7
-4 21 2 33 15 20 21 21 21 15 3 -4 -15 -3 -14 6 3 7 13 18 21 26 18 7 -3 12
-2 12 2 -3 18 2 33 9 29 10 -7 32 19 24 27 -3 4 1 4 9 1 9 -3 23 3 35 16 10
13 13 19 5 14 -9 -5 -12 -4 -7 3 4 6 13 9 20 6 8 -3 17 0 22 7 4 7 3 10 -3 6
-5 -3 -10 0 -10 7 0 8 9 11 24 8 19 -4 22 -1 16 13 -4 13 -3 16 5 11 8 -4 16
2 21 16 6 13 10 17 11 8 0 -12 3 -11 11 3 5 9 18 17 27 17 13 0 14 2 3 9 -16
10 -3 20 21 16 10 -2 15 2 12 9 -6 17 22 40 37 30 8 -4 9 -3 5 4 -4 7 6 18 26
27 24 10 26 13 8 9 l-25 -6 23 17 c12 9 28 13 35 9 7 -5 6 0 -3 11 -8 10 -10
16 -4 12 6 -3 17 3 24 13 11 15 17 17 27 8 11 -8 12 -7 7 7 -5 13 -4 16 5 11
7 -5 10 -2 9 6 -2 7 2 12 9 11 6 -1 17 4 23 12 8 9 8 15 2 15 -6 0 -13 -6 -15
-12 -4 -10 -6 -10 -6 -1 -1 15 34 35 44 25 5 -4 5 -1 1 6 -6 11 4 16 26 13 3
0 5 10 4 23 -2 19 1 23 15 21 11 -2 19 2 19 9 0 8 8 20 18 27 16 13 16 12 3
-6 -9 -13 -5 -11 11 5 14 14 23 29 20 34 -3 5 2 7 10 3 11 -4 18 1 21 15 3 11
10 17 16 13 7 -4 8 0 4 11 -4 12 -3 15 5 10 7 -4 12 -1 12 9 0 11 5 15 15 11
10 -4 15 -1 13 9 -2 7 1 13 6 12 5 -1 13 9 17 22 6 14 15 21 23 18 10 -4 12 0
9 14 -3 11 0 19 6 19 7 0 9 -6 5 -13 -4 -7 -3 -9 2 -4 5 5 9 14 9 20 0 7 5 12
12 12 6 0 15 4 20 9 4 5 3 7 -3 3 -6 -3 -11 0 -11 8 0 11 5 12 21 3 19 -10 20
-10 7 6 -12 15 -12 17 0 14 8 -2 13 3 11 11 -3 12 -1 12 14 0 15 -12 16 -12 9
0 -5 9 2 22 23 41 17 15 29 30 25 34 -3 3 -1 6 6 6 7 0 9 5 5 13 -5 8 -2 7 9
-2 15 -12 17 -12 11 3 -4 10 -1 16 8 16 18 0 61 44 52 53 -10 10 18 39 32 33
8 -3 11 2 9 15 -3 15 0 19 10 15 9 -3 12 0 9 8 -3 8 0 17 7 22 8 5 10 3 4 -6
-6 -9 -4 -11 4 -6 7 5 10 14 7 22 -3 9 0 11 11 7 11 -4 14 -2 9 5 -4 7 -2 12
4 12 6 0 8 4 5 10 -4 6 1 7 11 3 14 -5 16 -3 11 11 -5 13 -3 17 7 13 8 -3 17
1 20 9 4 10 1 13 -7 8 -6 -3 1 5 17 18 18 15 26 29 22 37 -4 6 -4 11 1 10 19
-3 33 2 33 12 0 5 -6 7 -12 4 -7 -4 3 8 22 26 19 18 34 37 33 41 -2 4 3 7 10
5 6 -1 11 4 10 11 -2 6 4 12 13 12 11 0 14 5 10 16 -4 12 -2 15 9 11 8 -4 17
-1 21 5 5 7 2 8 -7 4 -8 -4 -6 -1 4 7 12 10 14 17 7 22 -5 3 -8 11 -4 16 3 5
10 7 15 3 15 -9 41 17 34 34 -3 10 0 12 10 8 15 -5 18 1 18 36 0 9 2 17 6 16
24 -3 33 4 28 22 -3 11 -2 18 2 15 5 -2 17 2 27 10 11 8 14 14 7 15 -7 0 -13
4 -13 9 0 6 9 8 20 6 11 -2 18 0 15 6 -4 5 -1 9 4 9 6 0 11 5 11 11 0 5 -5 7
-12 3 -7 -4 -8 -3 -4 5 4 6 12 9 17 6 5 -4 9 -1 9 5 0 6 4 8 10 5 6 -3 7 1 4
9 -4 10 1 18 11 22 9 4 14 13 11 20 -3 7 4 16 15 19 11 4 18 9 15 12 -3 3 3
14 15 24 14 12 16 18 7 22 -9 4 -7 6 4 6 9 1 20 6 24 13 4 7 3 8 -4 4 -8 -5
-10 -2 -6 8 3 9 10 13 15 10 5 -3 10 0 10 5 1 6 2 16 3 23 0 6 8 13 16 15 13
4 13 3 0 -7 -10 -8 -11 -10 -2 -8 8 2 14 8 14 13 0 6 5 16 11 24 10 12 9 13
-2 6 -10 -5 -12 -4 -7 3 4 7 15 12 24 13 10 0 12 3 5 6 -17 6 2 43 22 43 8 0
12 8 10 19 -2 13 1 18 10 15 7 -3 16 0 21 7 5 8 3 10 -5 4 -7 -4 -5 4 4 19 10
14 22 23 29 19 6 -4 5 1 -3 10 -12 16 -12 17 5 10 16 -6 17 -4 7 8 -8 10 -9
19 -1 29 8 12 9 12 4 -3 -3 -9 -1 -17 4 -17 9 0 14 14 11 33 0 4 7 7 17 7 13
0 14 2 3 9 -11 7 -9 10 8 16 11 3 21 11 21 16 0 6 -6 7 -12 4 -7 -4 -2 3 12
15 14 12 19 19 13 15 -7 -3 -13 -1 -13 4 0 6 10 11 23 11 18 0 19 2 7 10 -13
9 -8 14 12 11 4 0 5 8 3 19 -2 12 5 27 19 37 13 10 22 26 20 35 -1 10 5 23 14
30 15 12 16 11 3 -4 -7 -10 -9 -18 -3 -18 12 0 22 24 22 51 0 11 4 18 9 15 10
-7 25 22 22 43 -1 7 2 10 7 7 5 -3 16 2 23 11 10 12 10 14 2 9 -7 -4 -13 -4
-13 -1 0 8 27 36 35 35 7 0 5 13 -2 20 -4 3 -3 -1 2 -9 6 -10 4 -12 -4 -7 -9
6 -9 11 0 22 6 7 16 11 22 7 5 -3 7 -1 4 5 -11 16 3 42 22 42 14 0 14 2 1 10
-10 6 -11 10 -2 10 6 0 12 6 12 14 0 8 5 18 12 22 7 4 8 3 4 -4 -10 -17 -1
-15 14 4 8 8 9 14 4 13 -26 -5 -26 3 1 22 18 13 22 18 10 14 -17 -5 -16 -2 7
22 15 15 30 40 33 55 5 17 12 25 19 21 6 -4 5 0 -2 9 -11 14 -10 18 5 27 16 9
16 12 3 21 -8 5 -10 10 -4 10 5 0 15 -5 22 -12 9 -9 11 -6 7 10 -2 12 1 22 6
22 6 0 8 4 5 9 -4 5 0 12 6 14 10 4 9 8 -2 17 -13 10 -13 11 2 6 20 -6 34 10
16 17 -10 4 -10 6 0 6 6 1 12 7 12 14 0 7 9 18 20 25 12 7 18 16 15 21 -2 5 2
14 10 21 12 10 13 16 3 28 -10 13 -10 14 0 8 7 -4 12 -1 12 9 0 10 5 13 13 9
7 -5 6 0 -3 11 -12 15 -12 17 -1 10 11 -6 13 -4 8 9 -6 14 -3 17 8 12 9 -3 14
-2 11 3 -10 15 15 72 27 64 7 -4 5 2 -3 12 -8 10 -10 16 -5 13 6 -4 18 7 28
23 9 17 12 27 7 24 -6 -3 -7 1 -4 9 3 9 9 14 13 11 4 -2 7 9 6 26 -1 21 1 27
9 19 16 -16 30 -12 16 5 -10 12 -9 20 4 40 9 14 22 23 28 19 7 -5 8 -1 0 12
-8 14 -6 21 6 32 10 7 12 11 5 8 -6 -4 -15 -2 -18 4 -4 6 -3 10 2 9 22 -4 32
2 27 16 -4 8 -1 15 6 15 9 0 9 4 -1 17 -10 11 -10 14 -1 9 7 -4 12 -2 12 4 0
6 5 8 13 4 7 -5 6 0 -3 11 -9 11 -10 16 -2 11 8 -5 12 1 13 18 2 39 3 44 13
53 5 4 6 3 2 -4 -3 -6 -3 -14 2 -17 9 -5 11 2 14 53 1 20 6 27 15 24 9 -4 11
0 7 11 -4 11 -1 16 11 16 9 0 13 5 10 10 -4 6 -12 7 -18 3 -8 -5 -8 -2 0 9 7
8 9 19 5 24 -4 4 2 2 12 -6 15 -12 18 -12 12 -1 -5 8 -3 17 5 23 11 8 10 9 -3
4 -10 -3 -20 0 -24 6 -4 6 -3 8 3 5 6 -4 17 1 24 10 12 14 12 16 -1 9 -8 -4
-7 -1 4 8 11 9 16 22 12 31 -3 9 -2 14 3 11 4 -3 13 6 20 20 6 15 7 23 1 19
-5 -3 -10 -1 -10 4 0 6 5 11 11 11 5 0 8 4 5 9 -3 5 1 12 9 15 13 5 14 10 4
28 -11 21 -11 22 4 10 13 -11 15 -11 13 0 -1 7 -5 18 -9 24 -7 12 6 27 33 37
11 4 10 6 -4 6 -20 1 -20 1 0 16 14 11 15 14 4 15 -13 0 -13 1 0 10 13 9 13
11 0 20 -12 7 -12 10 -1 10 7 0 11 6 8 13 -3 8 1 14 8 14 10 0 11 -5 4 -18 -5
-10 -5 -20 -1 -23 5 -3 9 0 10 7 0 7 3 22 6 35 3 12 1 20 -3 18 -4 -3 -8 1 -8
9 0 8 5 11 10 8 6 -4 8 3 5 15 -5 18 -2 22 15 22 18 0 20 2 7 11 -12 8 -12 12
-2 16 9 4 10 8 2 18 -8 10 -8 15 1 21 8 5 9 3 4 -6 -5 -9 -4 -11 4 -6 9 6 9
11 -1 24 -9 11 -9 13 -1 9 7 -5 17 2 24 15 11 21 11 22 -5 9 -14 -12 -16 -12
-10 2 3 8 12 18 21 21 10 4 12 10 6 19 -15 19 -9 42 10 41 17 -2 17 -1 0 19
-10 11 -13 18 -8 14 6 -3 17 -2 25 4 10 6 11 9 3 9 -7 0 -13 5 -13 11 0 5 5 7
11 3 8 -5 8 -1 0 14 -7 14 -8 23 -1 27 6 4 8 11 5 16 -4 5 1 9 11 9 14 0 14 3
4 15 -11 13 -10 14 6 9 10 -4 16 -4 12 1 -4 4 -3 14 4 22 9 11 7 12 -8 6 -16
-6 -17 -4 -7 9 7 8 10 18 6 21 -3 4 2 9 11 13 12 5 14 10 6 19 -8 9 -7 17 3
26 7 8 13 28 13 44 0 21 5 30 16 29 10 -1 14 4 11 12 -3 8 -10 11 -16 7 -6 -3
-7 -1 -3 5 4 7 15 12 24 12 15 1 15 2 -1 11 -15 9 -16 13 -6 26 10 12 10 17
-2 25 -11 7 -8 8 9 5 23 -6 24 -5 5 15 -10 12 -12 18 -5 14 6 -4 12 -2 12 4 0
6 4 9 9 5 6 -3 8 6 5 21 -3 16 0 31 8 35 10 7 10 9 1 9 -7 0 -13 5 -13 11 0 6
6 9 14 6 15 -6 16 9 2 32 -6 9 -5 12 1 8 14 -9 20 10 17 51 -2 32 10 44 19 20
4 -10 6 -10 6 0 1 7 -6 15 -15 19 -12 4 -13 8 -3 14 10 6 10 11 -2 25 -13 16
-12 16 7 6 19 -10 21 -9 16 15 -4 20 -2 24 9 18 11 -7 12 -6 2 6 -12 14 -15
61 -3 54 3 -1 11 3 18 11 8 9 9 14 2 14 -6 0 -8 5 -4 12 4 7 3 8 -4 4 -7 -4
-12 -2 -12 3 0 6 7 11 15 11 13 0 14 4 4 22 -10 18 -9 20 5 15 20 -8 20 -3 1
17 -13 13 -13 15 5 21 19 6 19 7 2 33 -12 19 -13 24 -3 17 11 -6 13 -4 8 8 -3
9 -1 19 5 23 7 4 6 9 -3 15 -11 7 -10 9 3 9 9 0 20 5 24 12 4 7 3 8 -4 4 -16
-10 -15 7 1 23 10 11 10 13 0 7 -16 -9 -17 6 -1 22 9 9 9 12 -2 12 -13 0 -13
2 0 10 11 7 11 10 2 10 -7 0 -10 5 -7 10 4 6 12 7 18 4 7 -4 9 -4 5 1 -4 4 -2
17 4 29 11 21 11 21 -10 2 -21 -18 -21 -18 -9 7 6 14 15 23 19 21 3 -2 9 0 12
5 4 5 1 13 -5 17 -8 5 -9 3 -4 -6 6 -9 4 -11 -4 -5 -9 5 -10 10 -2 18 15 15
14 30 -1 22 -7 -4 -6 -1 2 7 8 7 14 24 12 37 -3 17 0 21 10 15 10 -6 10 -4 -1
9 -11 14 -11 17 0 17 12 0 12 2 0 9 -16 11 -5 34 12 25 7 -4 9 -4 5 1 -4 4 -2
15 5 23 10 13 9 14 -1 8 -18 -11 -14 73 5 96 11 12 12 18 2 24 -8 4 -10 3 -5
-4 4 -7 2 -12 -3 -12 -14 0 -14 17 -1 25 5 3 6 13 3 22 -4 10 -2 14 5 9 6 -3
14 -1 18 5 4 8 3 9 -4 5 -7 -4 -12 -4 -13 1 0 4 -2 18 -3 31 -2 14 3 22 13 22
11 0 10 3 -5 14 -18 14 -18 15 -1 21 9 4 17 11 17 17 0 5 -4 7 -8 4 -5 -3 -9
1 -9 9 0 8 4 12 9 9 9 -6 12 7 9 54 -1 19 4 41 11 50 11 13 11 15 -2 10 -11
-4 -16 0 -16 12 0 10 4 16 8 13 5 -2 7 7 4 22 -4 21 -2 26 11 21 14 -6 14 -4
2 10 -8 9 -14 30 -15 47 -1 20 1 25 7 16 7 -11 9 -11 9 3 0 9 3 18 8 21 4 2 1
2 -5 1 -7 -2 -13 1 -13 6 0 6 4 10 10 10 5 0 7 7 4 15 -4 8 -11 12 -17 8 -6
-3 -7 -1 -3 5 4 6 14 9 24 6 13 -5 14 -4 3 4 -8 6 -11 17 -8 27 5 11 3 14 -6
9 -6 -4 -9 -4 -5 1 4 4 2 15 -4 24 -10 13 -10 14 2 4 20 -19 25 -16 28 12 1
14 -4 25 -11 25 -8 0 -7 4 3 10 12 8 12 10 1 10 -11 0 -11 3 0 17 12 15 12 16
-1 8 -13 -8 -13 -7 -1 8 11 14 11 17 0 17 -11 0 -11 2 1 10 13 9 13 10 0 10
-13 0 -13 1 0 10 13 9 13 10 0 10 -11 0 -12 2 -3 8 18 11 18 80 1 98 -10 9 3
35 14 28 6 -4 6 1 -1 13 -6 11 -7 23 -3 27 3 4 0 11 -8 16 -10 6 -11 10 -3 10
9 0 11 13 9 42 -3 24 0 48 6 55 7 9 6 14 -6 19 -14 5 -14 8 -1 21 15 15 21 38
7 30 -4 -3 -7 8 -7 24 -1 20 4 29 15 29 13 0 13 1 0 10 -9 6 -14 21 -12 41 3
23 0 29 -9 24 -8 -6 -10 -4 -3 6 13 22 14 43 1 51 -8 5 -8 8 -1 8 13 0 15 88
3 96 -13 7 -11 24 2 24 5 0 7 -5 3 -12 -4 -7 -3 -8 4 -4 8 5 9 13 2 25 -6 12
-5 22 3 31 9 10 9 11 0 6 -7 -4 -13 -3 -13 3 0 5 6 11 13 14 9 3 9 8 -2 18
-12 12 -13 12 -6 -1 5 -8 4 -11 0 -7 -12 10 -16 39 -5 32 5 -3 11 -1 15 5 6 9
-7 14 -30 11 -5 -1 -2 5 8 13 14 10 15 15 5 19 -9 4 -10 6 -1 6 7 1 10 8 6 18
-4 11 -3 14 5 9 7 -4 12 -2 12 3 0 11 -13 15 -35 12 -5 -1 -3 4 5 11 18 16 25
48 10 48 -6 0 -8 -4 -5 -10 3 -5 1 -10 -4 -10 -6 0 -9 10 -7 23 2 12 -2 28 -8
36 -8 11 -8 13 2 7 8 -5 12 -1 12 13 0 10 5 21 12 23 7 3 5 7 -6 11 -11 5 -15
3 -10 -5 4 -7 3 -8 -4 -4 -6 4 -9 13 -6 21 4 8 11 12 17 8 5 -3 7 -1 3 5 -3 5
-3 12 1 15 5 2 3 2 -4 1 -18 -4 -22 19 -5 38 13 16 13 17 -7 13 -20 -4 -20 -3
-6 18 8 12 15 26 15 32 0 5 -5 3 -10 -5 -6 -10 -8 9 -7 57 1 39 -1 69 -4 67
-4 -2 -10 3 -13 12 -3 8 -2 12 4 9 6 -3 10 -2 10 4 0 5 -7 14 -16 19 -15 8
-15 10 0 15 11 5 15 3 10 -5 -4 -7 -3 -8 5 -4 6 4 9 12 6 17 -4 5 -8 19 -10
31 -3 12 -9 24 -15 28 -6 4 -8 14 -4 23 3 9 11 14 17 10 6 -3 7 -1 3 6 -4 6
-11 9 -16 6 -4 -3 -11 2 -14 11 -3 8 -2 12 4 9 6 -3 10 1 10 10 0 9 -4 14 -8
11 -5 -3 -9 1 -9 9 0 8 4 12 9 9 4 -3 8 -1 8 5 0 5 -6 11 -12 14 -10 3 -10 7
-1 17 7 8 8 21 4 34 -5 11 -7 31 -5 44 3 14 -1 22 -11 22 -8 0 -15 7 -15 16 0
9 5 12 13 8 8 -6 8 -3 -2 9 -7 9 -11 24 -7 32 3 8 1 15 -4 15 -5 0 -7 7 -4 15
4 8 0 23 -7 32 -12 15 -12 16 6 9 18 -7 18 -5 -3 17 -12 13 -19 27 -15 31 4 4
1 11 -7 16 -10 7 -11 10 -2 10 6 0 12 7 12 16 0 8 -4 13 -8 10 -4 -2 -8 4 -8
14 0 10 3 17 7 14 11 -6 5 17 -11 46 -12 23 -12 24 4 11 14 -12 16 -12 10 3
-3 9 -13 16 -21 16 -12 0 -12 2 1 16 20 19 21 31 2 15 -11 -9 -16 -9 -22 0 -4
8 -3 9 4 5 7 -4 12 -1 12 9 0 9 -4 14 -8 11 -4 -2 -8 4 -8 14 0 10 4 16 8 14
14 -9 8 14 -8 30 -8 9 -11 16 -5 16 6 0 10 11 9 25 -2 20 -7 24 -23 20 -11 -3
-14 -2 -7 1 7 3 17 15 24 27 11 21 10 21 -7 7 -17 -14 -18 -13 -12 3 3 9 3 17
-2 17 -10 0 -8 31 4 49 5 9 4 12 -2 8 -6 -4 -13 0 -17 8 -3 8 3 19 12 25 15 9
14 10 -5 5 -18 -5 -21 -2 -19 25 1 16 -2 30 -7 30 -5 0 -4 6 2 14 9 11 9 16 0
22 -8 5 -9 3 -4 -6 5 -9 4 -11 -3 -6 -9 5 -9 13 -2 27 6 11 7 25 3 32 -4 6 -8
15 -8 19 0 3 -4 10 -9 15 -6 5 -6 2 -1 -7 5 -9 5 -12 -1 -7 -5 5 -9 12 -9 15
0 4 -4 13 -9 21 -6 9 -5 12 2 7 6 -3 13 -2 17 4 3 5 1 10 -5 10 -6 0 -9 4 -6
9 4 5 1 11 -6 13 -6 2 -12 14 -13 26 -1 18 1 20 14 9 14 -10 14 -10 3 5 -8 9
-10 23 -6 30 4 7 -3 4 -17 -7 -13 -11 -18 -13 -12 -4 10 12 10 18 0 29 -9 10
-9 11 1 6 15 -9 16 6 0 22 -8 8 -8 15 3 28 12 15 12 17 0 9 -11 -6 -13 -3 -9
13 4 12 1 25 -4 29 -7 3 -8 1 -4 -5 4 -7 2 -12 -4 -12 -8 0 -10 9 -6 26 5 18
3 24 -5 19 -8 -6 -8 -2 0 14 11 20 5 26 -21 22 -5 0 -8 4 -8 10 0 6 6 9 13 6
8 -3 14 1 14 8 0 8 -5 13 -11 12 -5 -1 -10 3 -11 10 0 6 -3 15 -7 18 -4 4 -3
16 2 26 8 14 5 21 -11 32 -20 14 -20 15 -2 20 17 4 17 5 -1 6 -13 1 -17 6 -13
21 3 11 0 23 -5 27 -7 4 -8 1 -3 -7 6 -9 4 -11 -4 -5 -9 5 -10 10 -2 18 12 12
15 31 4 24 -5 -3 -15 2 -23 11 -13 14 -12 15 4 9 15 -6 15 -2 -5 30 -13 20
-17 33 -11 29 18 -11 14 5 -5 21 -10 8 -13 12 -6 9 19 -10 8 25 -12 40 -10 8
-13 14 -7 14 7 0 12 5 12 11 0 5 -5 7 -10 4 -6 -4 -10 -3 -9 2 4 22 -2 34 -13
27 -9 -5 -9 -2 1 9 10 13 10 17 1 17 -9 0 -9 4 1 17 12 14 12 16 0 8 -11 -6
-13 -4 -8 8 3 9 1 19 -5 23 -6 4 -8 3 -4 -4 3 -6 2 -13 -3 -17 -6 -3 -8 3 -6
14 5 27 -5 62 -16 55 -13 -8 -11 10 3 24 9 9 9 12 0 12 -7 0 -12 7 -12 16 0 9
-5 12 -12 8 -8 -5 -7 0 2 11 8 10 10 16 5 13 -6 -4 -15 4 -21 17 -10 20 -9 23
5 18 13 -4 13 -2 -1 10 -10 8 -18 21 -18 30 0 8 -6 17 -12 20 -10 3 -10 7 0
19 10 13 9 18 -5 29 -17 13 -17 13 -3 -6 14 -19 14 -19 -2 -6 -10 7 -18 23
-18 35 0 12 -6 28 -12 35 -7 8 -8 11 -2 8 6 -3 11 1 11 9 0 9 -6 13 -15 9 -10
-3 -12 0 -8 10 3 8 2 15 -3 15 -5 0 -11 9 -14 20 -3 13 -1 18 5 13 15 -8 1 15
-26 46 -12 14 -14 21 -6 16 8 -5 4 5 -10 21 -14 15 -17 23 -8 16 14 -11 16
-10 11 7 -3 12 -10 18 -16 14 -6 -4 -8 2 -4 16 3 14 0 24 -9 28 -8 3 -14 14
-14 24 0 10 -6 19 -12 19 -9 0 -8 4 2 10 12 8 12 10 1 10 -8 0 -11 7 -8 19 3
14 1 18 -11 14 -12 -5 -14 -1 -10 21 4 22 2 26 -10 21 -9 -3 -13 -3 -9 1 4 4
2 13 -5 21 -9 11 -7 12 8 7 17 -5 17 -4 -1 7 -11 7 -27 19 -35 28 -13 13 -13
14 3 8 9 -3 17 -2 17 3 0 6 -7 10 -16 10 -13 0 -14 3 -4 15 10 12 9 16 -4 21
-9 3 -13 10 -10 15 5 8 -10 13 -29 10 -5 -1 -6 3 -2 9 3 6 12 8 18 4 7 -3 2 3
-11 13 -16 14 -20 21 -11 30 8 8 7 13 -2 18 -8 5 -10 4 -5 -3 15 -25 -3 -10
-20 16 -11 18 -13 23 -3 15 12 -10 15 -8 15 7 0 11 -6 17 -16 15 -9 -2 -17 3
-17 10 0 8 4 12 8 9 4 -2 11 1 15 7 4 7 3 9 -3 6 -6 -4 -19 1 -29 9 -10 9 -14
13 -7 10 7 -4 10 1 9 11 -2 9 -8 19 -14 21 -7 2 -12 10 -12 18 0 8 -5 14 -11
14 -6 0 -9 8 -7 18 2 9 -7 27 -19 40 -27 27 -31 41 -6 21 13 -11 13 -8 -2 12
-11 15 -24 24 -30 21 -5 -3 -3 3 5 13 9 11 10 16 3 11 -8 -4 -13 -2 -13 4 0 6
-6 18 -14 26 -8 8 -13 24 -11 35 3 17 1 19 -10 9 -11 -9 -12 -7 -8 12 4 19 3
20 -7 8 -9 -12 -10 -10 -8 11 2 17 -6 34 -25 53 -28 28 -37 47 -13 26 13 -10
13 -8 3 14 -8 16 -14 21 -19 13 -5 -7 -8 -3 -8 11 0 12 -4 22 -10 22 -5 0 -10
7 -10 16 0 8 -5 12 -11 8 -7 -4 -9 0 -5 14 5 14 1 21 -14 25 -18 5 -20 9 -10
26 9 17 8 22 -4 27 -8 3 -21 2 -28 -2 -10 -5 -11 -4 0 7 14 16 16 33 2 24 -5
-3 -10 1 -10 10 0 10 -5 13 -12 9 -8 -5 -7 0 2 11 8 10 10 16 4 13 -9 -6 -47
34 -50 53 -1 5 -2 14 -3 20 0 5 -5 8 -10 5 -5 -4 -7 3 -4 13 5 20 -28 46 -42
33 -5 -4 -5 -2 -1 5 9 15 -3 63 -16 63 -5 0 -6 -5 -2 -12 4 -6 3 -8 -3 -5 -6
4 -8 18 -5 32 2 14 0 26 -7 26 -6 1 -17 2 -23 3 -8 1 -12 12 -10 29 2 18 -1
27 -11 27 -16 0 -30 27 -22 41 4 5 -1 6 -10 3 -11 -5 -16 -2 -15 7 4 24 0 40
-7 36 -5 -3 -13 1 -20 8 -10 11 -10 15 0 18 7 3 4 6 -7 6 -12 1 -16 6 -12 17
5 12 2 15 -13 11 -18 -4 -24 14 -8 29 13 13 8 27 -5 16 -9 -7 -17 -6 -25 3
-10 11 -10 15 0 18 7 3 4 6 -5 6 -11 1 -18 9 -18 21 0 11 -7 20 -16 20 -8 0
-12 5 -9 10 3 6 1 10 -6 10 -7 0 -9 3 -6 7 4 3 -1 12 -11 20 -16 12 -16 13 1
7 15 -5 13 -1 -7 19 -14 14 -26 31 -26 37 0 5 -6 10 -14 10 -8 0 -17 7 -20 16
-4 10 -2 13 6 8 7 -5 8 -3 4 5 -5 7 -15 10 -23 6 -13 -5 -14 -3 -3 10 11 13
11 16 -1 13 -8 -2 -13 4 -13 14 1 10 -3 16 -10 15 -6 -1 -10 3 -9 10 2 8 -4
10 -15 6 -15 -6 -15 -5 -3 10 11 15 10 18 -13 27 -29 11 -36 23 -8 14 9 -3 4
3 -11 13 -17 11 -26 24 -24 35 3 11 0 15 -9 11 -8 -3 -14 0 -14 7 0 6 -5 8
-10 5 -13 -8 -8 17 5 28 6 4 -3 5 -20 1 -23 -4 -26 -3 -15 5 14 10 7 16 -14
12 -5 -1 -4 5 4 13 10 13 10 16 -4 16 -14 0 -20 11 -17 32 0 4 -6 5 -14 2 -11
-4 -15 1 -15 17 0 18 -3 21 -9 10 -7 -11 -10 -9 -13 10 -2 14 -9 24 -18 23 -9
-1 -17 7 -17 18 -2 20 -26 48 -42 48 -6 0 -8 6 -5 14 3 8 -3 19 -15 26 -12 6
-21 17 -21 25 0 8 -5 15 -11 15 -5 0 -7 -5 -3 -12 4 -6 3 -8 -4 -5 -5 4 -8 17
-4 29 3 14 2 19 -6 14 -7 -4 -12 -2 -12 4 0 6 -5 8 -12 4 -8 -5 -9 -2 -5 9 6
15 -3 21 -24 19 -4 -1 -5 9 -2 21 4 18 3 19 -6 7 -9 -13 -11 -13 -11 0 0 9 -9
22 -19 29 -11 9 -17 21 -13 30 5 14 4 14 -13 1 -11 -9 -16 -10 -11 -2 4 7 2
12 -4 12 -7 0 -9 7 -6 16 3 8 2 12 -4 9 -9 -6 -14 8 -11 28 0 4 -6 7 -15 7
-18 0 -46 25 -37 34 4 3 1 6 -6 6 -7 0 -10 4 -6 9 3 5 -4 12 -15 16 -11 3 -20
13 -20 21 0 8 -10 14 -22 14 -19 0 -20 2 -8 10 11 7 11 10 2 10 -8 0 -10 5 -6
13 6 8 3 8 -9 -1 -14 -12 -16 -11 -12 7 2 11 1 20 -3 20 -19 -3 -33 2 -28 10
3 5 -1 12 -10 15 -9 4 -14 13 -10 22 3 8 2 12 -4 9 -5 -3 -21 5 -34 18 -14 14
-28 22 -32 18 -4 -3 -4 -1 0 6 3 6 2 14 -4 18 -6 4 -8 11 -5 16 4 5 -3 9 -15
9 -14 0 -19 4 -14 12 5 8 2 9 -11 4 -15 -5 -16 -4 -5 9 11 13 11 16 -1 13 -8
-2 -13 3 -12 10 2 6 -5 12 -16 12 -10 0 -25 8 -32 18 -11 14 -11 15 1 5 8 -7
19 -13 25 -13 5 0 -5 10 -22 21 -18 12 -33 25 -33 31 0 5 -5 6 -12 2 -8 -5 -9
-2 -5 9 3 9 1 19 -5 23 -7 4 -8 3 -4 -4 4 -7 3 -12 -3 -12 -5 0 -13 9 -16 20
-3 11 -13 20 -21 20 -8 0 -14 6 -14 14 0 8 -5 18 -12 22 -7 4 -8 3 -4 -4 4 -7
3 -12 -3 -12 -5 0 -13 9 -16 20 -4 11 -11 18 -16 14 -5 -3 -9 -2 -8 3 4 23 -2
32 -18 26 -11 -4 -14 -3 -9 5 4 7 2 12 -4 12 -6 0 -8 5 -5 10 3 6 -1 10 -9 10
-8 0 -17 9 -21 19 -4 13 -13 18 -30 16 -21 -2 -23 0 -14 18 8 14 8 18 0 13 -6
-4 -11 -2 -11 3 0 6 -5 11 -11 11 -5 0 -7 -5 -3 -12 4 -7 3 -8 -5 -4 -6 4 -9
11 -6 16 5 9 -33 26 -48 22 -5 -1 -6 2 -2 7 3 6 13 8 23 5 12 -4 11 -2 -3 7
-28 17 -55 46 -49 53 2 3 -2 2 -8 -4 -14 -12 -29 -13 -27 -2 4 21 -2 42 -12
42 -5 0 -7 -5 -3 -12 4 -6 -4 -3 -18 8 -20 14 -23 22 -15 32 6 7 6 12 1 10 -5
-1 -19 3 -30 10 -12 6 -24 8 -28 4 -4 -3 -4 2 0 12 5 14 4 17 -4 12 -7 -4 -12
-2 -12 4 0 6 -5 8 -11 4 -7 -4 -10 -1 -7 7 5 15 -19 38 -40 39 -17 0 -42 25
-42 40 0 6 -4 8 -10 5 -5 -3 -10 -1 -10 4 0 6 -10 11 -22 12 -22 0 -22 1 -3 9
20 9 20 9 0 9 -12 1 -28 14 -39 32 -14 24 -20 28 -32 18 -12 -10 -13 -9 -8 6
5 13 4 16 -4 11 -7 -4 -12 -2 -12 5 0 9 -3 9 -14 0 -12 -10 -14 -9 -10 6 2 11
-8 27 -29 43 l-32 24 20 -24 20 -24 -30 22 c-51 37 -65 49 -65 56 0 4 5 4 12
0 7 -4 8 -3 4 5 -4 6 -12 9 -17 6 -5 -4 -9 -1 -9 6 0 8 -5 7 -17 -2 -11 -10
-14 -10 -9 -1 4 7 2 12 -4 12 -7 0 -10 6 -7 14 4 10 -1 12 -16 9 -18 -4 -19
-3 -7 6 12 9 10 11 -11 11 -16 0 -33 10 -47 30 -13 17 -29 30 -36 30 -8 0 -17
7 -20 16 -4 9 -13 14 -21 10 -18 -7 -20 10 -2 18 6 3 0 3 -14 1 -19 -2 -33 4
-47 20 -11 13 -17 26 -14 30 4 4 -3 4 -16 0 -16 -5 -22 -3 -20 7 2 7 -5 13
-14 13 -9 0 -20 4 -25 9 -4 5 -3 6 5 2 23 -14 12 2 -14 19 -18 12 -24 13 -19
4 3 -8 -1 -5 -10 6 -9 11 -20 20 -25 20 -4 0 -12 3 -16 8 -4 4 -1 7 6 7 7 0
10 3 7 6 -4 4 -14 1 -24 -7 -11 -9 -14 -10 -9 -1 4 6 3 12 -3 12 -5 0 -13 9
-16 20 -4 11 -11 17 -17 14 -6 -4 -5 -10 3 -15 10 -6 10 -9 2 -9 -6 0 -19 10
-27 22 -9 12 -16 18 -16 13 0 -6 -5 -2 -11 8 -6 9 -15 14 -21 11 -8 -5 -9 -1
-5 10 5 14 3 17 -8 12 -8 -3 -15 -1 -15 4 0 6 -9 10 -21 10 -11 0 -17 5 -14
10 3 6 1 10 -4 10 -21 0 -26 3 -38 20 -7 9 -26 23 -43 30 -16 7 -30 17 -30 22
0 6 -8 4 -17 -3 -10 -7 -15 -10 -11 -5 10 12 -20 39 -37 32 -9 -3 -15 1 -15
10 0 8 -4 12 -10 9 -5 -3 -10 1 -10 11 0 14 -2 15 -17 3 -10 -7 -15 -9 -11 -5
10 11 -28 45 -58 52 -12 3 -25 12 -28 19 -3 9 -13 11 -28 7 -20 -5 -21 -3 -10
10 11 14 10 16 -7 11 -14 -3 -21 -1 -21 8 0 11 -2 11 -10 -1 -8 -13 -10 -13
-10 2 0 12 -5 15 -17 11 -10 -4 -14 -2 -10 4 8 13 -20 26 -35 16 -7 -4 -8 -1
-3 7 6 10 4 12 -8 7 -9 -3 -16 -2 -14 2 1 5 -2 10 -8 11 -5 1 -22 9 -37 18
-19 11 -24 18 -15 24 9 6 9 8 0 8 -6 0 -15 -5 -18 -10 -4 -7 -14 -2 -26 11
-10 12 -19 17 -19 10 0 -9 -4 -8 -14 1 -8 7 -12 16 -9 20 2 4 -3 5 -11 2 -10
-4 -16 -1 -16 7 0 11 -3 11 -10 -1 -8 -12 -10 -10 -10 10 0 15 -3 20 -8 13 -5
-8 -11 -8 -24 1 -10 7 -14 17 -10 21 4 5 1 5 -5 1 -16 -9 -56 17 -45 29 4 5 0
4 -8 0 -19 -11 -51 -14 -44 -4 2 4 0 10 -6 14 -6 4 -7 11 -4 17 4 7 2 8 -5 4
-6 -4 -9 -12 -5 -17 3 -6 -3 -5 -14 2 -12 7 -18 17 -16 21 3 4 -2 8 -11 8 -10
0 -14 -5 -10 -12 4 -7 -3 -3 -14 10 -13 15 -29 22 -43 20 -16 -2 -23 2 -22 14
1 9 -4 14 -11 12 -7 -3 -15 2 -18 10 -4 9 -14 12 -26 9 -12 -3 -21 -1 -21 6 0
6 -8 8 -17 4 -16 -6 -17 -5 -3 12 8 10 10 16 3 12 -18 -11 -64 3 -56 17 4 6 0
5 -9 -2 -14 -11 -19 -9 -32 10 -9 12 -16 17 -16 10 0 -10 -3 -10 -14 0 -8 7
-11 18 -8 23 2 6 -1 5 -8 -2 -10 -9 -16 -8 -27 3 -8 8 -19 12 -24 9 -5 -4 -9
-1 -9 6 0 8 -5 7 -17 -2 -15 -12 -16 -12 -10 3 3 10 1 20 -5 24 -7 4 -8 3 -4
-4 4 -7 2 -12 -3 -12 -6 0 -11 5 -11 11 0 5 -5 7 -12 3 -7 -5 -9 -2 -5 9 4 11
2 14 -8 10 -8 -3 -12 -9 -9 -14 3 -5 -2 -6 -10 -3 -9 3 -16 10 -16 16 0 5 -10
7 -22 4 -13 -3 -17 -3 -10 0 6 3 12 10 12 15 0 6 -4 8 -9 4 -5 -3 -12 -1 -16
5 -4 7 -12 7 -24 0 -19 -10 -31 -4 -31 14 0 6 5 4 10 -4 7 -12 9 -10 7 8 -1
14 -5 18 -11 12 -13 -13 -46 -13 -46 0 0 5 -3 9 -7 9 -20 -3 -34 2 -28 11 4 7
-3 7 -20 0 -16 -6 -24 -6 -20 0 3 5 -5 14 -17 21 -22 12 -22 11 -8 -7 14 -19
14 -19 -7 0 -13 10 -20 23 -17 27 3 5 1 9 -5 9 -5 0 -12 -6 -14 -12 -4 -10 -6
-10 -6 0 -1 7 -5 11 -10 8 -5 -3 -14 1 -21 9 -7 8 -17 15 -23 15 -6 0 -2 -7 9
-15 19 -15 19 -15 -1 -8 -11 4 -26 14 -33 22 -8 9 -11 10 -7 4 4 -9 1 -11 -9
-7 -9 3 -13 11 -9 18 4 6 -2 4 -13 -4 -10 -8 -16 -10 -12 -6 5 5 -1 15 -12 23
-15 11 -24 11 -41 3 -19 -11 -20 -10 -15 12 3 12 3 17 0 10 -5 -10 -9 -10 -22
0 -13 11 -14 11 -8 -1 6 -9 5 -12 -5 -9 -8 3 -13 14 -12 24 1 10 0 13 -3 7 -3
-7 -15 -13 -25 -13 -11 0 -17 5 -14 10 9 14 -8 12 -24 -2 -11 -10 -13 -10 -7
0 4 6 2 12 -4 12 -6 0 -8 5 -4 13 5 7 0 6 -11 -3 -11 -9 -16 -10 -11 -2 4 6 2
12 -3 12 -6 0 -11 -5 -11 -12 0 -6 -9 -1 -20 12 -18 21 -20 22 -21 4 0 -14 -2
-15 -6 -4 -4 8 -13 20 -22 27 -13 10 -18 9 -28 -4 -12 -15 -13 -15 -13 2 0 10
-3 15 -7 12 -3 -4 -16 1 -27 10 -12 10 -15 11 -8 3 6 -8 12 -18 12 -24 0 -5
-8 0 -18 12 -15 17 -21 19 -32 9 -7 -7 -10 -7 -8 -2 3 6 0 16 -8 23 -12 11
-14 10 -14 -5 -1 -17 -1 -17 -11 0 -8 14 -14 15 -24 7 -10 -8 -17 -6 -28 10
-11 16 -16 18 -20 8 -4 -10 -6 -10 -6 1 -1 10 -4 11 -15 2 -11 -9 -16 -9 -22
0 -5 8 -3 9 6 4 8 -5 11 -4 6 3 -4 6 -14 8 -24 5 -15 -6 -16 -5 -2 12 14 17
13 17 -15 -1 -16 -10 -26 -14 -22 -8 4 7 0 15 -9 18 -8 3 -12 2 -9 -4 3 -6 1
-10 -4 -10 -6 0 -11 4 -11 10 0 5 -7 6 -17 3 -11 -4 -14 -3 -9 5 10 16 -6 15
-23 0 -11 -10 -13 -10 -7 0 5 8 0 12 -13 12 -12 0 -21 6 -21 13 0 8 -4 7 -10
-3 -9 -13 -10 -13 -10 0 0 13 -1 13 -10 0 -7 -12 -10 -12 -10 -1 0 7 -6 11
-15 7 -8 -3 -21 4 -31 17 l-16 22 5 -22 c7 -31 1 -29 -17 5 -11 19 -15 22 -16
10 0 -10 -5 -18 -11 -18 -5 0 -7 4 -4 10 3 6 -1 7 -9 4 -10 -4 -16 -1 -16 7 0
9 -3 10 -8 4 -4 -5 -13 -11 -21 -13 -12 -3 -12 0 -1 13 11 13 10 14 -5 9 -11
-5 -16 -3 -12 2 3 6 -3 11 -14 11 -10 1 -19 -1 -19 -5 0 -4 -9 -8 -19 -8 -11
0 -17 4 -14 10 3 5 -5 7 -21 4 -24 -5 -31 1 -27 24 0 4 -6 5 -13 2 -8 -3 -14
-11 -12 -17 1 -7 1 -9 -1 -4 -3 4 -9 5 -13 2 -5 -3 -12 0 -16 6 -5 8 -3 9 7 4
12 -8 12 -6 0 8 -14 18 -26 24 -17 8 3 -5 -5 -8 -19 -8 -14 0 -22 4 -19 9 4 6
-3 5 -15 -1 -14 -8 -21 -8 -21 -1 0 5 5 10 12 10 6 0 9 2 6 5 -9 10 -38 -7
-31 -18 3 -6 1 -7 -5 -3 -6 4 -9 14 -6 24 5 16 5 16 -9 0 -17 -22 -28 -23 -21
-4 3 8 0 17 -7 22 -8 4 -10 3 -5 -5 6 -8 0 -10 -21 -5 -15 3 -37 6 -48 5 -11
0 -23 5 -27 12 -5 8 -8 7 -8 -5 0 -9 -4 -19 -9 -22 -5 -4 -7 4 -4 16 4 19 3
20 -6 8 -9 -13 -11 -12 -11 5 0 17 -2 17 -10 5 -8 -13 -10 -13 -10 0 0 11 -3
11 -12 2 -17 -17 -28 -15 -28 4 0 14 -2 15 -17 3 -14 -12 -15 -12 -9 -1 7 11
4 12 -13 3 -16 -9 -21 -9 -21 2 0 7 -9 13 -19 13 -12 0 -17 -5 -13 -11 4 -6
-1 -2 -12 10 -10 11 -19 19 -20 18 -5 -7 -56 -21 -52 -14 9 14 -23 22 -43 11
-12 -6 -22 -5 -29 2 -18 18 -42 18 -42 0 0 -14 -2 -15 -9 -2 -6 8 -8 17 -5 21
2 4 -4 6 -13 4 -10 -1 -22 0 -27 3 -18 11 -145 9 -139 -2 8 -13 -28 14 -39 29
-4 6 -8 1 -8 -10 0 -17 -2 -17 -10 -5 -7 11 -10 11 -10 2 0 -7 -5 -10 -10 -7
-6 4 -8 10 -5 15 3 5 1 11 -4 14 -5 4 -13 2 -16 -4 -5 -8 -16 -5 -33 6 -27 17
-27 17 -9 -3 14 -16 15 -20 2 -20 -8 0 -15 5 -15 10 0 5 -6 4 -14 -2 -11 -10
-17 -8 -25 6 -7 13 -10 14 -11 4 0 -11 -4 -10 -16 5 -8 10 -13 14 -10 7 5 -8
-12 -11 -59 -10 -36 1 -65 6 -65 10 0 5 -6 5 -12 1 -29 -18 -52 -11 -50 16 0
3 -8 7 -19 7 -10 1 -19 -3 -19 -8 0 -6 4 -8 9 -4 5 3 12 1 15 -4 4 -5 2 -12
-3 -15 -5 -4 -13 -1 -17 5 -4 8 -9 7 -16 -2 -6 -10 -7 -6 -3 11 6 24 5 24 -9
6 -12 -15 -16 -16 -16 -5 0 17 -52 21 -67 5 -5 -5 -2 -6 6 -1 10 5 12 4 7 -4
-4 -6 -12 -9 -17 -5 -5 3 -7 10 -4 15 4 5 -17 9 -49 9 -34 0 -56 -5 -59 -12
-4 -10 -6 -10 -6 0 -1 9 -49 12 -206 12 -118 0 -205 -4 -205 -9z m586 -13 c4
-7 3 -8 -4 -4 -7 4 -12 2 -12 -5 0 -7 -3 -10 -6 -6 -6 5 3 27 11 27 2 0 7 -5
11 -12z m418 -33 c-4 -8 -11 -15 -16 -15 -6 0 -5 6 2 15 7 8 14 15 16 15 2 0
1 -7 -2 -15z m223 -37 c-3 -8 -6 -5 -6 6 -1 11 2 17 5 13 3 -3 4 -12 1 -19z
m93 -8 c0 -5 -5 -10 -11 -10 -5 0 -7 5 -4 10 3 6 8 10 11 10 2 0 4 -4 4 -10z
m3455 -1258 c-3 -3 -11 0 -18 7 -9 10 -8 11 6 5 10 -3 15 -9 12 -12z m580
-382 c3 -6 -1 -7 -9 -4 -18 7 -21 14 -7 14 6 0 13 -4 16 -10z m335 -255 c14
-18 13 -19 -1 -8 -9 7 -19 10 -23 6 -4 -4 -4 1 0 10 3 10 7 17 8 15 1 -2 8
-12 16 -23z m3055 -4555 c3 -6 -1 -7 -9 -4 -18 7 -21 14 -7 14 6 0 13 -4 16
-10z m125 -476 c0 -8 -19 -13 -24 -6 -3 5 1 9 9 9 8 0 15 -2 15 -3z m177
-1076 c4 -28 -6 -18 -12 12 -2 12 -1 20 2 16 4 -4 8 -16 10 -28z m-32 -2228
c3 -5 1 -10 -4 -10 -6 0 -11 5 -11 10 0 6 2 10 4 10 3 0 8 -4 11 -10z m-845
-2784 c0 -3 -4 -8 -10 -11 -5 -3 -10 -1 -10 4 0 6 5 11 10 11 6 0 10 -2 10 -4z
m-25 -35 c3 -5 2 -12 -3 -15 -5 -3 -9 1 -9 9 0 17 3 19 12 6z m-140 -271 c-3
-5 -12 -10 -18 -10 -7 0 -6 4 3 10 19 12 23 12 15 0z m-1231 -1739 c3 -4 -4
-17 -15 -27 -18 -16 -19 -16 -13 -1 3 9 10 17 16 17 5 0 6 5 3 10 -3 6 -4 10
-1 10 3 0 7 -4 10 -9z m-1670 -1462 c-3 -5 -10 -7 -15 -3 -5 3 -7 10 -3 15 3
5 10 7 15 3 5 -3 7 -10 3 -15z m-4523 -1542 c-13 -13 -26 -3 -16 12 3 6 11 8
17 5 6 -4 6 -10 -1 -17z m-81 3 c0 -5 -5 -10 -11 -10 -5 0 -7 5 -4 10 3 6 8
10 11 10 2 0 4 -4 4 -10z"/>
<path d="M11823 21405 c0 -7 6 -11 14 -8 7 3 13 6 13 8 0 2 -6 5 -13 8 -8 3
-14 -1 -14 -8z"/>
<path d="M11825 21349 c-4 -6 -5 -12 -2 -15 2 -3 7 2 10 11 7 17 1 20 -8 4z"/>
<path d="M11825 21149 c-4 -6 -5 -12 -2 -15 2 -3 7 2 10 11 7 17 1 20 -8 4z"/>
<path d="M11825 20909 c-4 -6 -5 -12 -2 -15 2 -3 7 2 10 11 7 17 1 20 -8 4z"/>
<path d="M11825 20669 c-4 -6 -5 -12 -2 -15 2 -3 7 2 10 11 7 17 1 20 -8 4z"/>
<path d="M11825 20429 c-4 -6 -5 -12 -2 -15 2 -3 7 2 10 11 7 17 1 20 -8 4z"/>
<path d="M11825 19949 c-4 -6 -5 -12 -2 -15 2 -3 7 2 10 11 7 17 1 20 -8 4z"/>
<path d="M18190 19841 c0 -6 4 -13 10 -16 6 -3 7 1 4 9 -7 18 -14 21 -14 7z"/>
<path d="M18348 19723 c7 -3 16 -2 19 1 4 3 -2 6 -13 5 -11 0 -14 -3 -6 -6z"/>
<path d="M11825 19709 c-4 -6 -5 -12 -2 -15 2 -3 7 2 10 11 7 17 1 20 -8 4z"/>
<path d="M18485 19620 c3 -5 8 -10 11 -10 2 0 4 5 4 10 0 6 -5 10 -11 10 -5 0
-7 -4 -4 -10z"/>
<path d="M11826 19488 c3 -5 10 -6 15 -3 13 9 11 12 -6 12 -8 0 -12 -4 -9 -9z"/>
<path d="M11825 18989 c-4 -6 -5 -12 -2 -15 2 -3 7 2 10 11 7 17 1 20 -8 4z"/>
<path d="M11825 18749 c-4 -6 -5 -12 -2 -15 2 -3 7 2 10 11 7 17 1 20 -8 4z"/>
<path d="M11825 18509 c-4 -6 -5 -12 -2 -15 2 -3 7 2 10 11 7 17 1 20 -8 4z"/>
<path d="M11825 18269 c-4 -6 -5 -12 -2 -15 2 -3 7 2 10 11 7 17 1 20 -8 4z"/>
<path d="M11825 18149 c-4 -6 -5 -12 -2 -15 2 -3 7 2 10 11 7 17 1 20 -8 4z"/>
<path d="M11825 17949 c-4 -6 -5 -12 -2 -15 2 -3 7 2 10 11 7 17 1 20 -8 4z"/>
<path d="M11825 17629 c-4 -6 -5 -12 -2 -15 2 -3 7 2 10 11 7 17 1 20 -8 4z"/>
<path d="M11825 17509 c-4 -6 -5 -12 -2 -15 2 -3 7 2 10 11 7 17 1 20 -8 4z"/>
<path d="M11825 17309 c-4 -6 -5 -12 -2 -15 2 -3 7 2 10 11 7 17 1 20 -8 4z"/>
<path d="M20760 17066 c0 -2 7 -9 15 -16 13 -11 14 -10 9 4 -5 14 -24 23 -24
12z"/>
<path d="M11825 16749 c-4 -6 -5 -12 -2 -15 2 -3 7 2 10 11 7 17 1 20 -8 4z"/>
<path d="M11825 16509 c-4 -6 -5 -12 -2 -15 2 -3 7 2 10 11 7 17 1 20 -8 4z"/>
<path d="M11826 16288 c3 -5 10 -6 15 -3 13 9 11 12 -6 12 -8 0 -12 -4 -9 -9z"/>
<path d="M11825 15469 c-4 -6 -5 -12 -2 -15 2 -3 7 2 10 11 7 17 1 20 -8 4z"/>
<path d="M11825 15229 c-4 -6 -5 -12 -2 -15 2 -3 7 2 10 11 7 17 1 20 -8 4z"/>
<path d="M11826 15008 c3 -5 10 -6 15 -3 13 9 11 12 -6 12 -8 0 -12 -4 -9 -9z"/>
<path d="M11825 14189 c-4 -6 -5 -12 -2 -15 2 -3 7 2 10 11 7 17 1 20 -8 4z"/>
<path d="M11825 13949 c-4 -6 -5 -12 -2 -15 2 -3 7 2 10 11 7 17 1 20 -8 4z"/>
<path d="M21935 13880 c-3 -5 -1 -10 4 -10 6 0 11 5 11 10 0 6 -2 10 -4 10 -3
0 -8 -4 -11 -10z"/>
<path d="M21935 13840 c3 -5 8 -10 11 -10 2 0 4 5 4 10 0 6 -5 10 -11 10 -5 0
-7 -4 -4 -10z"/>
<path d="M11826 13728 c3 -5 10 -6 15 -3 13 9 11 12 -6 12 -8 0 -12 -4 -9 -9z"/>
<path d="M11825 12909 c-4 -6 -5 -12 -2 -15 2 -3 7 2 10 11 7 17 1 20 -8 4z"/>
<path d="M11825 12669 c-4 -6 -5 -12 -2 -15 2 -3 7 2 10 11 7 17 1 20 -8 4z"/>
<path d="M11825 12429 c-4 -6 -5 -12 -2 -15 2 -3 7 2 10 11 7 17 1 20 -8 4z"/>
<path d="M11742 11190 c-9 -15 -9 -21 1 -26 6 -4 9 -4 5 1 -4 4 -3 14 4 22 6
7 9 15 7 18 -3 2 -10 -4 -17 -15z"/>
<path d="M11725 11049 c-4 -6 -5 -12 -2 -15 2 -3 7 2 10 11 7 17 1 20 -8 4z"/>
<path d="M11635 10560 c-3 -6 1 -7 9 -4 18 7 21 14 7 14 -6 0 -13 -4 -16 -10z"/>
<path d="M21725 9980 c-3 -5 -1 -10 4 -10 6 0 11 5 11 10 0 6 -2 10 -4 10 -3
0 -8 -4 -11 -10z"/>
<path d="M11485 9940 c-3 -6 1 -7 9 -4 18 7 21 14 7 14 -6 0 -13 -4 -16 -10z"/>
<path d="M11226 9172 c-3 -5 1 -9 9 -9 8 0 12 4 9 9 -3 4 -7 8 -9 8 -2 0 -6
-4 -9 -8z"/>
<path d="M20685 7610 c-3 -6 1 -7 9 -4 18 7 21 14 7 14 -6 0 -13 -4 -16 -10z"/>
<path d="M20470 7279 c0 -5 5 -7 10 -4 6 3 10 8 10 11 0 2 -4 4 -10 4 -5 0
-10 -5 -10 -11z"/>
<path d="M9946 6875 c-9 -26 -7 -32 5 -12 6 10 9 21 6 23 -2 3 -7 -2 -11 -11z"/>
<path d="M19970 6615 c-11 -13 -10 -14 4 -9 9 3 16 10 16 15 0 13 -6 11 -20
-6z"/>
<path d="M9680 6540 c-6 -11 -8 -20 -6 -20 3 0 10 9 16 20 6 11 8 20 6 20 -3
0 -10 -9 -16 -20z"/>
<path d="M16986 4251 c-4 -5 -2 -12 3 -15 5 -4 12 -2 15 3 4 5 2 12 -3 15 -5
4 -12 2 -15 -3z"/>
<path d="M6280 4030 c-8 -5 -12 -12 -9 -15 4 -3 12 1 19 10 14 17 11 19 -10 5z"/>
<path d="M6096 3952 c-3 -5 1 -9 9 -9 8 0 12 4 9 9 -3 4 -7 8 -9 8 -2 0 -6 -4
-9 -8z"/>
<path d="M16160 3896 c0 -2 8 -10 18 -17 15 -13 16 -12 3 4 -13 16 -21 21 -21
13z"/>
<path d="M14445 3429 c-4 -6 -5 -12 -2 -15 2 -3 7 2 10 11 7 17 1 20 -8 4z"/>
<path d="M13990 3371 c0 -6 4 -13 10 -16 6 -3 7 1 4 9 -7 18 -14 21 -14 7z"/>
<path d="M3611 3344 c0 -11 3 -14 6 -6 3 7 2 16 -1 19 -3 4 -6 -2 -5 -13z"/>
<path d="M3450 3319 c0 -5 5 -7 10 -4 6 3 10 8 10 11 0 2 -4 4 -10 4 -5 0 -10
-5 -10 -11z"/>
</g>
</svg>
